<svg width="17" height="18" viewBox="0 0 17 18" fill="none" xmlns="http://www.w3.org/2000/svg">
<path d="M1.25 18.0001C1.05109 18.0001 0.860322 17.921 0.71967 17.7804C0.579018 17.6397 0.5 17.449 0.5 17.2501V0.750056C0.49999 0.619719 0.533947 0.49163 0.598521 0.378415C0.663096 0.2652 0.75606 0.170767 0.868249 0.104426C0.980438 0.0380846 1.10798 0.00212461 1.2383 9.12923e-05C1.36862 -0.00194202 1.49722 0.0300215 1.61143 0.0928306L16.6114 8.34283C16.7291 8.40755 16.8273 8.50267 16.8956 8.61828C16.964 8.73388 17 8.86572 17 9.00002C17 9.13432 16.964 9.26616 16.8956 9.38176C16.8273 9.49736 16.7291 9.59249 16.6114 9.65721L1.61143 17.9072C1.50069 17.9681 1.37637 18 1.25 18.0001Z" fill="#FA541C"/>
</svg>
