<svg width="466" height="467" viewBox="0 0 466 467" fill="none" xmlns="http://www.w3.org/2000/svg">
<path fill-rule="evenodd" clip-rule="evenodd" d="M239.494 454.498C212.7 454.498 192.231 450.807 184.067 449.175C154.461 443.251 97.2313 431.803 55.8554 383.876C-6.7429 311.365 3.00451 197.127 51.5599 121.719C55.3605 115.815 66.1281 98.4173 84.6728 79.4835C84.7995 79.7609 85.0322 79.9917 85.3422 80.1114C86.565 80.5835 87.7846 81.1144 88.9676 81.6898C89.1418 81.7744 89.3264 81.8146 89.5083 81.8146C89.9135 81.8146 90.3047 81.6154 90.5348 81.2667C90.5609 81.2272 90.5848 81.1857 90.6068 81.1423C90.906 80.5453 90.6571 79.8222 90.0511 79.5274C88.8144 78.9263 87.5395 78.371 86.2619 77.8767C103.459 60.654 127.053 42.4035 157.663 30.5176C145.725 37.6171 134.829 46.9439 126.123 57.7703C125.929 57.8673 125.782 58.0454 125.729 58.2629C109.049 79.2556 100.605 105.8 108.684 132.671C109.419 135.116 110.309 137.661 111.35 140.242C111.273 140.425 111.195 140.606 111.115 140.788C110.847 141.4 111.134 142.109 111.754 142.373C111.913 142.439 112.076 142.471 112.238 142.471C112.254 142.471 112.269 142.471 112.283 142.471C117.828 155.227 126.977 168.312 139.141 173.538C140.38 174.07 141.648 174.519 142.939 174.885C143.744 175.357 144.608 175.793 145.537 176.192C151.172 178.614 163.397 180.369 173.359 180.369C178.078 180.369 182.287 179.976 185.051 179.071C207.903 171.598 222.923 151.146 210.494 128.464C206.515 121.201 201.363 114.566 197.927 107.038C194.489 99.5097 192.923 90.5751 196.427 83.0769C203.015 68.9814 224.251 64.0934 239.051 64.0934C239.705 64.0934 240.343 64.1029 240.97 64.1215C241.737 64.1444 242.5 64.1826 243.26 64.2359C251.763 68.2616 259.086 74.551 264.374 82.7652C276.104 100.981 279.075 123.138 277.359 144.283C275.521 166.91 265.836 184.188 251.321 201.546C238.824 216.488 225.062 230.833 216.757 248.38C209.132 264.49 206.64 282.339 206.296 299.962C206.228 303.378 207.397 339.047 207.47 348.882C207.482 350.271 208.616 351.393 210.025 351.409C214.749 353.288 228.208 356.41 229.368 356.423C236.729 356.505 257.578 356.734 265.251 356.819C265.261 356.819 265.272 356.819 265.283 356.819C266.847 356.819 268.129 355.583 268.147 354.039C268.693 306.192 283.635 260.578 321.456 228.444C335.218 216.752 350.039 207.23 360.74 192.472C368.538 181.717 374.317 171.049 377.812 159.721L433.226 157.072C435.09 156.982 436.763 156.214 438.002 155.014C465.853 229.748 455.408 317.923 418.791 372.778C418.325 372.794 417.855 372.802 417.385 372.802C409.61 372.802 401.55 370.811 393.13 368.822C384.708 366.832 375.923 364.841 366.692 364.841C360.599 364.841 354.31 365.709 347.803 368.016C313.829 380.062 318.512 425.485 320.419 437.642C320.689 439.355 322.025 440.695 323.737 441.017C293.447 451.443 263.855 454.498 239.494 454.498ZM228.009 450.258C228.173 450.318 228.338 450.378 228.505 450.438C232.562 451.882 247.46 451.92 253.146 451.92C253.473 451.92 253.77 451.92 254.031 451.92C276.368 451.92 288.749 432.455 288.749 410.454C288.749 388.855 265.948 372.819 243.979 372.242C240.781 371.44 237.431 371.013 233.979 371.013C211.642 371.013 193.536 388.85 193.536 410.85C193.536 430.854 208.504 447.415 228.009 450.258ZM419.413 183.37C417.406 183.37 415.411 184.718 415.161 187.11C411.433 222.752 383.412 235.207 321.592 295.869C256.473 359.769 305.403 429.676 312.132 438.61C312.594 439.222 313.281 439.621 314.049 439.724C314.185 439.743 314.318 439.751 314.45 439.751C316.286 439.751 317.692 438.032 317.214 436.21C313.352 421.451 306.804 369.514 386.695 322.134C459.121 279.183 437.235 213.745 423.189 185.701C422.389 184.105 420.898 183.37 419.413 183.37ZM75.3981 167.965C75.3387 167.965 75.2784 167.969 75.2177 167.977C73.9341 168.165 72.6288 168.301 71.3374 168.381C70.663 168.422 70.1507 168.995 70.1935 169.66C70.2346 170.299 70.7728 170.79 71.4137 170.79C71.4397 170.79 71.4659 170.789 71.4922 170.787C72.8512 170.702 74.2253 170.56 75.5758 170.362C75.9374 170.31 76.2387 170.107 76.4231 169.827C76.58 169.589 76.6528 169.297 76.6073 168.994C76.5175 168.396 75.9949 167.965 75.3981 167.965ZM60.9318 167.889C60.3408 167.889 59.8202 168.312 59.7242 168.905C59.6177 169.562 60.0725 170.181 60.7401 170.285C62.0862 170.497 63.4591 170.654 64.8205 170.752C64.851 170.755 64.8814 170.757 64.9116 170.757C65.3367 170.757 65.7178 170.539 65.9374 170.206C66.0462 170.042 66.1153 169.849 66.1312 169.639C66.1808 168.975 65.6749 168.397 65.0007 168.348C63.7074 168.255 62.4038 168.105 61.1259 167.905C61.0606 167.894 60.9959 167.889 60.9318 167.889ZM85.5447 165.341C85.3989 165.341 85.2508 165.366 85.1066 165.421C83.8963 165.878 82.652 166.291 81.4092 166.646C80.7598 166.831 80.3864 167.5 80.5752 168.141C80.7308 168.669 81.2195 169.01 81.7502 169.01C81.8632 169.01 81.9783 168.994 82.0922 168.962C83.4004 168.588 84.7095 168.154 85.9832 167.673C86.2339 167.578 86.4347 167.41 86.5706 167.205C86.7768 166.893 86.8334 166.49 86.6877 166.114C86.5009 165.636 86.0369 165.341 85.5447 165.341ZM50.8182 165.139C50.3318 165.139 49.8714 165.426 49.6803 165.897C49.4292 166.515 49.735 167.216 50.3626 167.464C51.6301 167.963 52.9328 168.414 54.2354 168.804C54.3545 168.841 54.4747 168.858 54.593 168.858C55.0055 168.858 55.3938 168.651 55.619 168.309C55.6799 168.217 55.7289 168.115 55.7632 168.004C55.9603 167.366 55.5959 166.692 54.9494 166.498C53.7122 166.127 52.475 165.699 51.2709 165.224C51.1224 165.166 50.969 165.139 50.8182 165.139ZM94.8639 160.605C94.6312 160.605 94.396 160.67 94.1876 160.806C93.1115 161.511 91.9892 162.181 90.8523 162.796C90.2598 163.117 90.0431 163.849 90.3691 164.433C90.5919 164.833 91.0105 165.058 91.4425 165.058C91.6417 165.058 91.8438 165.009 92.0308 164.908C93.2278 164.261 94.4093 163.557 95.5426 162.814C95.6861 162.721 95.8032 162.602 95.8914 162.468C96.1494 162.076 96.1633 161.557 95.8847 161.144C95.6489 160.793 95.2603 160.605 94.8639 160.605ZM41.5583 160.28C41.1671 160.28 40.7826 160.465 40.5459 160.807C40.1496 161.358 40.3097 162.108 40.868 162.482C41.1664 162.683 41.4674 162.88 41.7716 163.074C42.6114 163.612 43.4803 164.132 44.3534 164.62C44.5438 164.725 44.751 164.776 44.9553 164.776C45.3581 164.776 45.7501 164.58 45.982 164.228C45.9958 164.208 46.0087 164.185 46.0212 164.165C46.3544 163.586 46.1477 162.85 45.5595 162.522C44.7294 162.058 43.904 161.565 43.1054 161.054C42.8163 160.869 42.5298 160.679 42.2464 160.49C42.0354 160.348 41.7956 160.28 41.5583 160.28ZM102.901 153.972C102.579 153.972 102.257 154.097 102.017 154.346C101.124 155.267 100.179 156.163 99.2057 157.009C98.7009 157.45 98.6528 158.212 99.1 158.711C99.342 158.979 99.6785 159.118 100.018 159.118C100.305 159.118 100.595 159.017 100.828 158.815C101.852 157.925 102.847 156.981 103.788 156.01C103.841 155.955 103.889 155.896 103.929 155.833C104.243 155.356 104.18 154.712 103.748 154.307C103.51 154.083 103.206 153.972 102.901 153.972ZM35.0207 154.997C34.7037 154.997 34.3872 155.118 34.1475 155.358C33.672 155.835 33.6811 156.596 34.163 157.063C34.64 157.524 35.1316 157.98 35.6244 158.419C35.8586 158.627 36.1522 158.731 36.4448 158.731C36.779 158.731 37.1117 158.597 37.3533 158.334C37.3979 158.285 37.4375 158.234 37.4724 158.181C37.7944 157.693 37.7184 157.033 37.2663 156.63C36.7984 156.214 36.331 155.781 35.8783 155.342C35.64 155.112 35.3302 154.997 35.0207 154.997ZM109.267 145.757C108.85 145.757 108.445 145.966 108.217 146.341C107.541 147.446 106.82 148.521 106.067 149.549C105.672 150.089 105.796 150.842 106.342 151.232C106.56 151.386 106.81 151.461 107.059 151.461C107.438 151.461 107.813 151.287 108.052 150.96C108.519 150.324 108.977 149.666 109.414 149.001C109.72 148.537 110.02 148.065 110.313 147.585C110.663 147.015 110.477 146.275 109.898 145.931C109.7 145.814 109.482 145.757 109.267 145.757ZM95.2226 82.6757C94.8303 82.6757 94.4449 82.8612 94.2083 83.2052L94.1953 83.2251C93.833 83.7743 93.9822 84.5107 94.5352 84.8796C95.6285 85.6089 96.7001 86.3914 97.7201 87.2053C97.9477 87.3861 98.2201 87.4741 98.491 87.4741C98.8468 87.4741 99.2009 87.3213 99.4429 87.0269C99.4702 86.9938 99.4942 86.9594 99.5183 86.9242C99.8548 86.4133 99.7522 85.7235 99.2618 85.3317C98.1865 84.4747 97.0582 83.6511 95.9082 82.8835C95.6978 82.7431 95.459 82.6757 95.2226 82.6757ZM96.847 73.3494C96.5843 73.3494 96.3294 73.482 96.1978 73.7224C96.1097 73.8735 96.0223 74.0244 95.937 74.1775C95.3707 75.1815 94.854 76.2236 94.4035 77.272C94.2407 77.6508 94.4202 78.0875 94.8048 78.2478C94.901 78.2879 95.0008 78.307 95.0992 78.307C95.3508 78.307 95.592 78.1825 95.7329 77.9688C95.7566 77.9326 95.7779 77.8938 95.7954 77.8526C96.2252 76.8529 96.718 75.859 97.2602 74.8979C97.3419 74.7519 97.4236 74.6094 97.507 74.4686C97.7153 74.1121 97.5919 73.6569 97.2313 73.451C97.1111 73.3824 96.9781 73.3494 96.847 73.3494ZM101.574 67.177C101.377 67.177 101.18 67.2528 101.031 67.4035C100.103 68.347 99.2234 69.3605 98.4157 70.4154C98.1689 70.7487 98.2314 71.2113 98.5647 71.4585C98.7009 71.5599 98.8612 71.6087 99.0182 71.6087C99.2474 71.6087 99.475 71.5064 99.624 71.3125C100.393 70.3056 101.233 69.339 102.118 68.4394C102.151 68.404 102.182 68.3661 102.209 68.3265C102.401 68.0338 102.364 67.6384 102.1 67.3868C101.954 67.2468 101.764 67.177 101.574 67.177ZM107.687 62.335C107.551 62.335 107.414 62.3708 107.289 62.446C106.151 63.1387 105.046 63.9079 104.006 64.7326C103.68 64.9921 103.629 65.4592 103.89 65.7798C104.039 65.9626 104.259 66.0576 104.48 66.0576C104.647 66.0576 104.813 66.0038 104.953 65.8933C105.946 65.1067 106.999 64.3734 108.084 63.7133C108.184 63.6536 108.262 63.575 108.321 63.4855C108.475 63.2517 108.488 62.9413 108.329 62.6881C108.187 62.4604 107.94 62.335 107.687 62.335ZM114.817 59.1119C114.741 59.1119 114.665 59.1231 114.589 59.1469C113.314 59.5465 112.051 60.027 110.836 60.5757C110.456 60.7467 110.291 61.189 110.464 61.5629C110.592 61.8362 110.866 61.9974 111.152 61.9974C111.257 61.9974 111.365 61.9756 111.466 61.9295C112.626 61.406 113.83 60.9474 115.046 60.5665C115.219 60.5121 115.36 60.4021 115.451 60.2627C115.57 60.0822 115.608 59.8522 115.538 59.6308C115.435 59.3141 115.139 59.1119 114.817 59.1119ZM122.533 57.691C122.517 57.691 122.501 57.6915 122.485 57.6924C121.149 57.7744 119.804 57.9385 118.492 58.181C118.081 58.2571 117.812 58.647 117.887 59.0502C117.956 59.4079 118.274 59.6576 118.629 59.6576C118.676 59.6576 118.724 59.6535 118.77 59.6448C120.022 59.4134 121.304 59.2568 122.578 59.179C122.828 59.1638 123.04 59.032 123.166 58.8408C123.251 58.7116 123.296 58.5553 123.287 58.3898C123.263 57.9952 122.929 57.691 122.533 57.691ZM327.15 439.812C327.729 439.113 328.033 438.19 327.891 437.202C326.958 430.725 331.487 425.365 369.107 419.33C355.305 428.049 341.165 434.737 327.15 439.812ZM375.407 94.7965C371.173 81.7687 364.733 69.4856 355.746 58.9494C349.582 51.7232 342.375 45.4886 334.457 40.2261C349.385 47.3755 363.541 56.2326 376.4 66.8444C386.417 75.1107 395.38 84.2006 403.34 93.945L375.407 94.7965Z" fill="#FEE9D1"/>
<path fill-rule="evenodd" clip-rule="evenodd" d="M314.05 439.728C313.282 439.625 312.595 439.226 312.133 438.614C305.404 429.68 256.474 359.773 321.593 295.873C383.413 235.211 411.434 222.756 415.162 187.114C415.596 182.952 421.31 181.953 423.19 185.705C437.236 213.749 459.122 279.187 386.696 322.139C306.804 369.518 313.353 421.454 317.215 436.214C317.726 438.165 316.077 440 314.05 439.728Z" fill="#FDAB76"/>
<path fill-rule="evenodd" clip-rule="evenodd" d="M323.958 441.053C322.141 440.808 320.7 439.427 320.419 437.642C318.512 425.485 313.829 380.062 347.803 368.016C364.166 362.215 379.149 365.519 393.13 368.822C411.106 373.069 427.426 377.317 442.891 362.211C444.337 360.799 446.769 362.03 446.425 364.008C443.976 378.035 433.078 410.527 384.586 417.064C332.684 424.061 326.843 429.926 327.891 437.201C328.215 439.445 326.237 441.358 323.958 441.053Z" fill="#FDAB76"/>
<path fill-rule="evenodd" clip-rule="evenodd" d="M309.004 428.263C308.621 428.263 308.257 428.047 308.084 427.693C303.558 418.231 300.178 408.172 298.306 397.787C297.35 392.6 296.784 387.33 296.622 382.042C296.494 376.754 296.72 371.444 297.396 366.181C298.696 355.647 301.714 345.328 306.058 335.613C310.416 325.894 316.172 316.815 322.897 308.534C329.62 300.242 337.418 292.823 345.946 286.341C350.218 283.108 354.685 280.117 359.348 277.428C363.913 274.849 368.246 272.227 372.445 269.244C380.822 263.349 388.564 256.544 395.226 248.777C398.598 244.929 401.651 240.809 404.441 236.515C407.175 232.212 409.731 227.672 411.57 222.977L411.594 222.915C411.735 222.556 412.086 222.333 412.456 222.333C412.566 222.333 412.679 222.354 412.788 222.395C413.223 222.56 413.459 223.017 413.355 223.452C412.72 226.096 411.877 228.578 410.871 231.04C409.884 233.501 408.746 235.901 407.505 238.248C405.05 242.959 402.105 247.415 398.877 251.66C392.381 260.129 384.522 267.569 375.86 273.878C371.54 277.015 366.921 279.897 362.357 282.502C357.911 285.042 353.634 287.883 349.537 290.96C341.337 297.113 333.902 304.253 327.338 312.081C314.257 327.752 304.975 346.662 301.919 366.795C300.359 376.839 300.34 387.122 301.746 397.25C303.134 407.391 306.068 417.32 309.937 426.894C310.147 427.406 309.897 427.985 309.377 428.192C309.256 428.241 309.129 428.263 309.004 428.263Z" fill="#FEE9D1"/>
<path fill-rule="evenodd" clip-rule="evenodd" d="M322.522 433.83C322.244 433.83 321.978 433.682 321.842 433.423C321.741 433.23 321.732 433.016 321.799 432.826L321.805 432.812C321.964 432.372 321.914 431.963 321.9 431.543L321.86 430.289L321.831 427.786C321.833 426.116 321.869 424.447 321.943 422.78C322.095 419.445 322.382 416.112 322.836 412.799C323.759 406.18 325.283 399.58 327.995 393.365C330.677 387.191 334.738 381.292 340.634 377.439C343.57 375.546 346.883 374.199 350.316 373.514C352.58 373.046 354.885 372.839 357.181 372.839C358.366 372.839 359.545 372.894 360.718 372.995C374.23 374.539 387.472 377.09 400.75 379.163C405.441 379.851 410.178 380.487 414.853 380.487C416.77 380.487 418.675 380.38 420.565 380.125C422.179 379.893 423.768 379.546 425.312 379.057C426.841 378.531 428.342 377.917 429.745 377.107C432.568 375.519 435.051 373.347 437.27 370.938L437.277 370.93C437.439 370.755 437.663 370.665 437.887 370.665C438.085 370.665 438.282 370.735 438.44 370.875C438.772 371.172 438.801 371.675 438.509 372.008C436.261 374.558 433.692 376.915 430.688 378.689C429.198 379.592 427.589 380.296 425.95 380.896C424.294 381.459 422.592 381.868 420.876 382.152C418.664 382.471 416.457 382.601 414.262 382.601C409.592 382.601 404.965 382.012 400.415 381.398C393.707 380.457 387.081 379.232 380.434 378.173C373.807 377.11 367.102 376.083 360.502 375.32C359.29 375.205 358.074 375.143 356.861 375.143C354.811 375.143 352.769 375.32 350.774 375.716C347.593 376.323 344.551 377.532 341.83 379.248C336.344 382.689 332.365 388.164 329.663 394.091C326.929 400.047 325.304 406.496 324.273 413.002C323.765 416.262 323.419 419.549 323.209 422.846C323.105 424.494 323.038 426.144 323.004 427.797L322.986 430.274L323.002 431.51C323.014 431.92 322.994 432.34 323.2 432.73C323.393 433.099 323.248 433.554 322.873 433.745C322.76 433.802 322.64 433.83 322.522 433.83Z" fill="#FEE9D1"/>
<path fill-rule="evenodd" clip-rule="evenodd" d="M265.283 356.825C265.272 356.825 265.261 356.825 265.251 356.825C257.578 356.74 236.729 356.511 229.368 356.429C228.208 356.416 214.749 353.294 210.025 351.415C210.025 351.415 210.025 351.415 210.028 351.415C217.387 351.497 238.236 351.726 245.909 351.81C245.92 351.812 245.93 351.812 245.941 351.812C247.505 351.812 248.787 350.576 248.805 349.032C249.351 301.187 264.293 255.571 302.114 223.437C315.876 211.745 330.697 202.223 341.398 187.465C347.797 178.64 352.837 169.873 356.369 160.752L377.812 159.727C374.317 171.055 368.538 181.723 360.739 192.478C350.039 207.236 335.218 216.758 321.456 228.451C283.634 260.584 268.693 306.199 268.147 354.045C268.129 355.589 266.847 356.825 265.283 356.825ZM173.359 180.375C163.397 180.375 151.172 178.62 145.537 176.198C144.608 175.799 143.744 175.363 142.939 174.891C146.073 175.782 149.337 176.198 152.618 176.198C157.047 176.198 161.506 175.439 165.709 174.064C188.561 166.591 203.581 146.138 191.152 123.457C187.173 116.194 182.021 109.559 178.585 102.031C175.149 94.5028 173.581 85.5677 177.085 78.0695C183.673 63.974 204.909 59.0859 219.709 59.0859C220.363 59.0859 221.001 59.0954 221.628 59.1142C229.288 59.3424 236.631 61.1049 243.26 64.2421C242.5 64.1888 241.737 64.1506 240.97 64.1277C240.343 64.1091 239.705 64.0996 239.051 64.0996C224.251 64.0996 203.015 68.9877 196.427 83.0831C192.923 90.5813 194.489 99.5159 197.927 107.044C201.363 114.572 206.515 121.207 210.494 128.47C222.923 151.153 207.903 171.605 185.051 179.078C182.287 179.982 178.078 180.375 173.359 180.375ZM357.725 95.3417C353.595 80.2604 346.657 65.9637 336.404 53.9421C323.169 38.4253 305.119 27.4812 285.564 20.9141C286.564 21.1048 287.558 21.303 288.548 21.5086C304.826 24.8895 320.711 31.096 334.457 40.2323C342.375 45.4948 349.582 51.7294 355.746 58.9557C364.733 69.4919 371.172 81.7749 375.407 94.8027L357.725 95.3417Z" fill="#B3200E"/>
<path fill-rule="evenodd" clip-rule="evenodd" d="M253.149 451.919C247.463 451.919 232.565 451.881 228.507 450.437C228.34 450.377 228.175 450.317 228.012 450.257C229.96 450.541 231.953 450.688 233.981 450.688C256.319 450.688 274.425 432.851 274.425 410.849C274.425 392.249 261.482 376.624 243.982 372.24C265.95 372.818 288.751 388.853 288.751 410.453C288.751 432.453 276.371 451.919 254.033 451.919C253.772 451.919 253.476 451.919 253.149 451.919Z" fill="#B3200E"/>
<path fill-rule="evenodd" clip-rule="evenodd" d="M245.942 351.808C245.93 351.808 245.921 351.808 245.91 351.808C238.236 351.723 217.388 351.494 210.029 351.412C210.027 351.412 210.027 351.412 210.026 351.412C208.617 351.396 207.482 350.274 207.471 348.885C207.397 339.05 206.229 303.381 206.296 299.965C206.641 282.342 209.133 264.493 216.758 248.383C225.063 230.836 238.824 216.491 251.322 201.549C265.836 184.191 275.521 166.913 277.359 144.286C279.076 123.141 276.104 100.984 264.375 82.7682C259.086 74.5539 251.764 68.2646 243.26 64.2389C236.632 61.1016 229.289 59.3392 221.628 59.1109C221.002 59.0921 220.364 59.0826 219.71 59.0826C204.91 59.0826 183.674 63.9707 177.085 78.0663C173.582 85.5645 175.149 94.4995 178.585 102.027C182.021 109.556 187.174 116.19 191.153 123.453C203.581 146.134 188.562 166.588 165.71 174.061C161.506 175.436 157.048 176.195 152.618 176.195C149.338 176.195 146.073 175.778 142.94 174.888C141.648 174.522 140.381 174.073 139.142 173.541C126.978 168.315 117.829 155.23 112.284 142.474C112.675 142.459 113.045 142.259 113.265 141.926C113.303 141.87 113.335 141.809 113.364 141.746C113.904 140.51 114.398 139.239 114.83 137.967C115.045 137.335 114.699 136.652 114.058 136.44C113.93 136.398 113.798 136.377 113.67 136.377C113.157 136.377 112.678 136.696 112.51 137.201C112.162 138.222 111.772 139.244 111.351 140.245C110.309 137.664 109.42 135.119 108.684 132.674C100.605 105.803 109.05 79.2586 125.73 58.2659C125.72 58.3066 125.714 58.3489 125.71 58.3922C125.685 58.8024 126.002 59.1557 126.419 59.1811C127.693 59.2588 128.975 59.4156 130.228 59.6478C130.276 59.6564 130.323 59.6605 130.369 59.6605C130.627 59.6605 130.864 59.5295 131.002 59.3213C131.055 59.2421 131.092 59.1516 131.111 59.0534C131.188 58.6492 130.917 58.26 130.507 58.1839C129.193 57.9408 127.848 57.7757 126.512 57.6947C126.496 57.6936 126.48 57.6932 126.464 57.6932C126.342 57.6932 126.226 57.7219 126.124 57.7732C134.829 46.9469 145.725 37.62 157.663 30.5205C162.564 27.6057 167.643 25.0653 172.816 22.9514C190.552 15.7025 210.545 12.5 230.427 12.5C230.908 12.5 231.388 12.5 231.869 12.5057C244.592 12.6045 257.245 14.0069 269.207 16.4917C274.728 17.6384 280.202 19.11 285.565 20.9108C305.12 27.478 323.17 38.4221 336.404 53.9388C346.658 65.9605 353.596 80.2572 357.726 95.3384L312.44 96.7187C306.859 96.8889 302.421 101.396 302.421 106.897V147.907L280.438 170.056L306.807 163.118L306.746 162.905C307.161 163.001 307.594 163.052 308.038 163.052C308.129 163.052 308.222 163.05 308.315 163.046L356.37 160.749C352.838 169.87 347.797 178.637 341.398 187.461C330.697 202.219 315.877 211.741 302.115 223.434C264.293 255.567 249.352 301.183 248.806 349.028C248.788 350.572 247.506 351.808 245.942 351.808ZM124.896 136.358C124.835 136.358 124.773 136.369 124.712 136.391C124.443 136.492 124.31 136.787 124.412 137.051C127.122 144.038 130.037 148.005 130.159 148.169C130.262 148.306 130.419 148.379 130.579 148.379C130.685 148.379 130.792 148.347 130.885 148.281C131.116 148.114 131.167 147.795 130.997 147.566C130.969 147.527 128.039 143.534 125.382 136.686C125.303 136.483 125.105 136.358 124.896 136.358ZM115.875 126.274C115.255 126.274 114.724 126.737 114.66 127.359C114.529 128.628 114.341 129.906 114.103 131.161C113.978 131.815 114.415 132.445 115.08 132.568C115.157 132.582 115.233 132.588 115.308 132.588C115.726 132.588 116.111 132.377 116.334 132.041C116.417 131.911 116.478 131.766 116.508 131.605C116.76 130.285 116.957 128.937 117.095 127.602C117.164 126.939 116.673 126.348 116.002 126.281C115.959 126.276 115.917 126.274 115.875 126.274ZM120.504 121.635C120.778 123.804 121.145 125.827 121.566 127.696C121.619 127.935 121.834 128.097 122.071 128.097C122.109 128.097 122.146 128.094 122.185 128.085C122.464 128.025 122.641 127.752 122.579 127.475C122.186 125.731 121.842 123.848 121.576 121.837C122.529 121.92 123.492 121.962 124.452 121.962C124.571 121.962 124.691 121.962 124.811 121.96C125.074 121.957 125.303 121.823 125.436 121.621C125.515 121.502 125.56 121.36 125.558 121.207C125.553 120.798 125.217 120.47 124.802 120.47C124.8 120.47 124.797 120.47 124.794 120.47C124.675 120.471 124.558 120.473 124.44 120.473C123.423 120.473 122.403 120.422 121.395 120.325C120.084 108.155 121.821 91.7151 133.31 73.4339C135.574 69.8324 137.993 66.4285 140.557 63.2291C140.591 63.4349 140.711 63.6256 140.905 63.7442C141.095 63.8603 141.285 63.9778 141.471 64.0971C142.354 64.6624 143.217 65.2793 144.038 65.9302C144.179 66.041 144.346 66.095 144.512 66.095C144.733 66.095 144.951 65.9999 145.102 65.8176C145.118 65.7971 145.132 65.7766 145.147 65.7554C145.355 65.4391 145.291 65.0119 144.987 64.7706C144.126 64.0878 143.221 63.4411 142.294 62.8483C142.099 62.7236 141.902 62.6005 141.703 62.4788C141.584 62.4063 141.453 62.3732 141.323 62.3732C141.297 62.3732 141.273 62.3744 141.248 62.3768C161.088 38.1613 189.594 25.7687 224.574 25.7687C241.983 25.7687 260.998 28.8387 281.343 35.0485C281.395 35.0643 281.446 35.0717 281.496 35.0717C281.717 35.0717 281.924 34.9306 281.992 34.7115C282.077 34.4419 281.924 34.1554 281.649 34.0717C261.138 27.8115 242.015 24.6771 224.451 24.6771C212.133 24.6771 200.581 26.2192 189.858 29.3063C165.526 36.3126 146.203 50.9781 132.429 72.8956C120.758 91.4646 119.023 108.176 120.374 120.531C120.273 120.643 120.205 120.784 120.188 120.943C120.156 121.223 120.286 121.483 120.504 121.635ZM115.976 117.917C115.944 117.917 115.912 117.917 115.88 117.92C115.207 117.972 114.702 118.55 114.755 119.215C114.805 119.84 114.84 120.471 114.864 121.09C114.888 121.741 115.43 122.252 116.085 122.252C116.101 122.252 116.116 122.252 116.132 122.25C116.545 122.236 116.904 122.02 117.112 121.703C117.245 121.501 117.319 121.259 117.31 121.002C117.285 120.35 117.247 119.687 117.196 119.029C117.144 118.397 116.609 117.917 115.976 117.917ZM132.457 119.469C132.395 119.469 132.332 119.477 132.268 119.493C131.05 119.802 129.803 120.042 128.561 120.205C128.148 120.26 127.856 120.634 127.912 121.041C127.962 121.415 128.287 121.687 128.659 121.687C128.693 121.687 128.727 121.685 128.76 121.681C130.063 121.51 131.371 121.259 132.647 120.934C132.837 120.887 132.991 120.77 133.09 120.62C133.203 120.451 133.244 120.238 133.19 120.028C133.102 119.692 132.794 119.469 132.457 119.469ZM139.642 116.692C139.52 116.692 139.398 116.721 139.285 116.781C138.18 117.368 137.028 117.895 135.86 118.345C135.47 118.495 135.278 118.927 135.432 119.31C135.547 119.603 135.834 119.783 136.135 119.783C136.227 119.783 136.32 119.767 136.411 119.733C137.635 119.259 138.844 118.706 140.003 118.092C140.116 118.031 140.209 117.944 140.277 117.843C140.422 117.622 140.443 117.332 140.309 117.084C140.171 116.834 139.911 116.692 139.642 116.692ZM145.942 112.301C145.761 112.301 145.578 112.364 145.434 112.493C144.501 113.327 143.512 114.11 142.49 114.823C142.148 115.063 142.068 115.526 142.31 115.862C142.458 116.066 142.69 116.176 142.927 116.176C143.078 116.176 143.232 116.132 143.363 116.039C144.435 115.29 145.474 114.47 146.45 113.597C146.498 113.552 146.541 113.502 146.575 113.45C146.758 113.174 146.737 112.799 146.501 112.544C146.352 112.383 146.147 112.301 145.942 112.301ZM150.976 106.537C150.732 106.537 150.493 106.653 150.347 106.869C149.649 107.898 148.881 108.894 148.064 109.829C147.796 110.141 147.828 110.61 148.144 110.878C148.286 111 148.463 111.058 148.637 111.058C148.849 111.058 149.06 110.971 149.211 110.799C150.067 109.819 150.871 108.776 151.604 107.696L151.61 107.688C151.835 107.347 151.74 106.889 151.396 106.664C151.267 106.578 151.121 106.537 150.976 106.537ZM154.469 99.7525C154.16 99.7525 153.87 99.942 153.758 100.242C153.328 101.404 152.822 102.553 152.254 103.656C152.065 104.023 152.214 104.471 152.586 104.656C152.697 104.711 152.814 104.738 152.928 104.738C153.178 104.738 153.42 104.615 153.562 104.398C153.577 104.376 153.589 104.354 153.602 104.329C154.198 103.173 154.729 101.969 155.178 100.752C155.32 100.365 155.118 99.9388 154.726 99.7983C154.641 99.7668 154.554 99.7525 154.469 99.7525ZM156.202 92.3405C155.82 92.3405 155.492 92.6251 155.45 93.0076C155.32 94.2369 155.11 95.4711 154.828 96.6764C154.735 97.0769 154.989 97.4769 155.396 97.5691C155.453 97.582 155.509 97.5882 155.565 97.5882C155.822 97.5882 156.061 97.4584 156.199 97.2493C156.247 97.1782 156.282 97.098 156.303 97.0107C156.598 95.7468 156.817 94.4519 156.953 93.1625C156.998 92.7535 156.695 92.3874 156.28 92.3445C156.255 92.3418 156.229 92.3405 156.202 92.3405ZM156.28 86.6414C156.259 86.6414 156.24 86.6422 156.221 86.6436C155.806 86.6766 155.493 87.034 155.525 87.4441C155.572 88.0397 155.602 88.65 155.614 89.2582C155.622 89.6645 155.958 89.9886 156.37 89.9888C156.375 89.9888 156.38 89.9886 156.384 89.9886C156.644 89.9834 156.872 89.8495 157.005 89.6492C157.083 89.5288 157.128 89.3846 157.126 89.2301C157.114 88.593 157.083 87.9533 157.033 87.3285C157.001 86.9383 156.671 86.6414 156.28 86.6414ZM147.416 67.2167C147.227 67.2167 147.036 67.2863 146.891 67.4262C146.588 67.7114 146.583 68.1836 146.873 68.4791C147.298 68.9123 147.716 69.364 148.115 69.8218C148.264 69.9934 148.476 70.0815 148.689 70.0815C148.863 70.0815 149.038 70.0225 149.181 69.9022C149.237 69.8544 149.283 69.8004 149.322 69.7423C149.5 69.4722 149.485 69.1088 149.262 68.8518C148.844 68.3721 148.405 67.8982 147.959 67.4436C147.81 67.2926 147.613 67.2167 147.416 67.2167ZM134.182 59.1223C133.861 59.1223 133.565 59.3249 133.462 59.6396C133.334 60.0314 133.552 60.45 133.951 60.5758C135.164 60.9591 136.366 61.4216 137.526 61.95C137.629 61.9968 137.736 62.0189 137.842 62.0189C138.094 62.0189 138.334 61.8953 138.477 61.6808C138.496 61.6513 138.514 61.6199 138.53 61.5874C138.704 61.2137 138.539 60.7712 138.161 60.5985C136.945 60.0441 135.683 59.5595 134.413 59.1579C134.336 59.1338 134.259 59.1223 134.182 59.1223Z" fill="#FA541C"/>
<path fill-rule="evenodd" clip-rule="evenodd" d="M248.029 384.463C248.008 384.3 247.909 384.15 247.748 384.07C243.457 381.926 238.825 380.838 233.98 380.838C233.693 380.838 233.461 381.067 233.461 381.35C233.461 381.371 233.462 381.391 233.465 381.411C233.494 381.666 233.714 381.864 233.981 381.864C238.66 381.864 243.135 382.914 247.279 384.985C247.354 385.023 247.435 385.04 247.513 385.04C247.702 385.04 247.885 384.938 247.976 384.759C248.025 384.664 248.041 384.561 248.029 384.463ZM204.811 414.777C205.933 422.899 210.508 430.232 217.521 434.899C217.649 434.984 217.726 435.116 217.745 435.256C217.763 435.377 217.737 435.505 217.661 435.615C217.562 435.76 217.398 435.839 217.232 435.839C217.131 435.839 217.03 435.81 216.942 435.752C209.68 430.919 204.944 423.325 203.783 414.915C203.599 413.579 203.505 412.223 203.505 410.855C203.505 399.782 209.662 389.645 219.571 384.398C219.649 384.357 219.734 384.336 219.818 384.336C220.002 384.336 220.18 384.434 220.274 384.606C220.305 384.662 220.324 384.721 220.332 384.78C220.362 384.986 220.261 385.199 220.064 385.302C210.49 390.371 204.542 400.165 204.542 410.859C204.542 412.18 204.633 413.488 204.811 414.777ZM228.011 450.267C229.96 450.551 231.952 450.698 233.981 450.698C256.318 450.698 274.424 432.862 274.424 410.859C274.424 392.259 261.481 376.634 243.981 372.251C240.782 371.449 237.433 371.022 233.981 371.022C211.643 371.022 193.537 388.859 193.537 410.859C193.537 430.863 208.506 447.424 228.011 450.267Z" fill="#FA541C"/>
<path fill-rule="evenodd" clip-rule="evenodd" d="M84.673 79.4853C84.5427 79.2 84.5245 78.8652 84.6495 78.5507C84.841 78.0745 85.3011 77.7848 85.7891 77.7848C85.9378 77.7848 86.089 77.8116 86.2361 77.8683C86.2448 77.8718 86.2534 77.8751 86.2622 77.8784C85.726 78.4154 85.1968 78.9506 84.673 79.4853Z" fill="#FDAB76"/>
<path fill-rule="evenodd" clip-rule="evenodd" d="M112.285 142.471C111.963 141.726 111.65 140.982 111.352 140.242C111.774 139.241 112.163 138.22 112.511 137.198C112.679 136.693 113.158 136.374 113.671 136.374C113.799 136.374 113.931 136.395 114.059 136.438C114.7 136.649 115.046 137.333 114.831 137.964C114.399 139.236 113.905 140.507 113.365 141.743C113.336 141.806 113.304 141.868 113.266 141.923C113.046 142.256 112.676 142.457 112.285 142.471ZM115.309 132.586C115.234 132.586 115.158 132.579 115.081 132.565C114.416 132.442 113.979 131.812 114.104 131.159C114.343 129.904 114.53 128.625 114.661 127.356C114.726 126.734 115.256 126.272 115.876 126.272C115.918 126.272 115.96 126.273 116.003 126.278C116.674 126.346 117.165 126.936 117.096 127.599C116.958 128.935 116.761 130.283 116.509 131.602C116.479 131.763 116.418 131.909 116.335 132.038C116.112 132.374 115.727 132.586 115.309 132.586Z" fill="#FDAB76"/>
<path fill-rule="evenodd" clip-rule="evenodd" d="M36.4453 158.729C36.1527 158.729 35.8591 158.624 35.6249 158.416C35.1321 157.977 34.6404 157.521 34.1635 157.06C33.6816 156.593 33.6725 155.832 34.148 155.355C34.3877 155.115 34.7042 154.994 35.0212 154.994C35.3307 154.994 35.6405 155.109 35.8788 155.339C36.3315 155.778 36.7988 156.211 37.2668 156.628C37.7189 157.03 37.7949 157.69 37.4729 158.178C37.438 158.231 37.3984 158.282 37.3538 158.331C37.1122 158.594 36.7795 158.729 36.4453 158.729Z" fill="#FDAB76"/>
<path fill-rule="evenodd" clip-rule="evenodd" d="M21.3133 116.909C21.2524 116.909 21.1909 116.904 21.129 116.895C20.4606 116.795 20.0005 116.181 20.1011 115.523C20.3079 114.175 20.5774 112.816 20.9019 111.486C21.0369 110.934 21.5382 110.563 22.0908 110.563C22.1856 110.563 22.282 110.574 22.3783 110.596C23.035 110.752 23.4398 111.403 23.2817 112.05C22.9736 113.313 22.718 114.602 22.5219 115.883C22.4951 116.058 22.4308 116.219 22.3387 116.359C22.1172 116.694 21.7334 116.909 21.3133 116.909Z" fill="#FDAB76"/>
<path fill-rule="evenodd" clip-rule="evenodd" d="M24.0818 106.763C23.9325 106.763 23.7807 106.737 23.6334 106.68C23.0047 106.435 22.6959 105.736 22.9437 105.115C23.4519 103.848 24.0222 102.583 24.6383 101.358C24.85 100.934 25.2836 100.689 25.7343 100.689C25.9175 100.689 26.1035 100.729 26.2787 100.815C26.884 101.111 27.1316 101.834 26.8314 102.43C26.2457 103.594 25.7037 104.795 25.2211 106.001C25.1904 106.078 25.1521 106.149 25.108 106.216C24.8806 106.561 24.4905 106.763 24.0818 106.763Z" fill="#FDAB76"/>
<path fill-rule="evenodd" clip-rule="evenodd" d="M29.0693 97.4767C28.8322 97.4767 28.5928 97.4089 28.3819 97.2677C27.8304 96.8981 27.682 96.1628 28.0437 95.6144L28.0583 95.5933C28.8382 94.463 29.6765 93.3539 30.5494 92.2962C30.7916 92.003 31.1443 91.851 31.5001 91.851C31.7716 91.851 32.0445 91.9394 32.2716 92.1213C32.7614 92.5134 32.863 93.2021 32.5264 93.7123C32.5029 93.7479 32.4769 93.783 32.4493 93.8171C31.6198 94.822 30.8233 95.8754 30.0823 96.9486C29.8456 97.2918 29.4608 97.4767 29.0693 97.4767Z" fill="#FDAB76"/>
<path fill-rule="evenodd" clip-rule="evenodd" d="M36.0154 89.5125C35.687 89.5125 35.3595 89.3831 35.1184 89.1273C34.6582 88.6392 34.6894 87.8787 35.1825 87.4234C36.1976 86.4949 37.2664 85.5984 38.3589 84.7593C38.5823 84.5875 38.8475 84.5042 39.1107 84.5042C39.475 84.5042 39.8352 84.6636 40.0766 84.9683C40.4066 85.3847 40.4149 85.9476 40.1381 86.3669C40.0662 86.4761 39.9743 86.5754 39.8642 86.6602C38.827 87.4572 37.8121 88.3084 36.8483 89.1903C36.6125 89.4058 36.3137 89.5125 36.0154 89.5125Z" fill="#FDAB76"/>
<path fill-rule="evenodd" clip-rule="evenodd" d="M98.4931 87.4707C98.2222 87.4707 97.9498 87.3826 97.7222 87.2018C96.7021 86.3879 95.6306 85.6054 94.5373 84.8761C93.9843 84.5072 93.8351 83.7708 94.1974 83.2216L94.2104 83.2018C94.447 82.8578 94.8324 82.6723 95.2247 82.6723C95.4611 82.6723 95.6999 82.7397 95.9103 82.88C97.0603 83.6477 98.1886 84.4712 99.2639 85.3282C99.7543 85.72 99.8569 86.4099 99.5203 86.9207C99.4963 86.9559 99.4722 86.9903 99.445 87.0235C99.203 87.3179 98.8488 87.4707 98.4931 87.4707Z" fill="#FDAB76"/>
<path fill-rule="evenodd" clip-rule="evenodd" d="M44.589 83.282C44.1658 83.282 43.7542 83.0656 43.5278 82.6787C43.1899 82.1019 43.3906 81.3647 43.9763 81.0319C45.1765 80.3498 46.4216 79.7105 47.6761 79.1313C47.8441 79.054 48.0207 79.0172 48.1946 79.0172C48.6547 79.0172 49.0954 79.274 49.3037 79.7116C49.4901 80.1033 49.4438 80.5432 49.2211 80.881C49.1007 81.0632 48.9294 81.2158 48.7146 81.3148C47.5226 81.865 46.3402 82.4725 45.1994 83.1206C45.0068 83.2299 44.7965 83.282 44.589 83.282Z" fill="#FDAB76"/>
<path fill-rule="evenodd" clip-rule="evenodd" d="M89.5099 81.8117C89.328 81.8117 89.1434 81.7715 88.9692 81.6869C87.7861 81.1115 86.5666 80.5806 85.3438 80.1084C85.0338 79.9888 84.8011 79.758 84.6744 79.4806C85.1981 78.946 85.7273 78.4108 86.2635 77.8738C87.5411 78.3681 88.816 78.9234 90.0527 79.5245C90.6587 79.8192 90.9075 80.5424 90.6083 81.1394C90.5864 81.1828 90.5625 81.2243 90.5364 81.2638C90.3063 81.6125 89.9151 81.8117 89.5099 81.8117Z" fill="#FDAB76"/>
<path fill-rule="evenodd" clip-rule="evenodd" d="M54.3585 79.081C53.8357 79.081 53.3519 78.7487 53.1894 78.231C52.9895 77.5946 53.3515 76.9196 53.9976 76.7233C55.3234 76.3195 56.6811 75.9674 58.0323 75.6766C58.1204 75.6575 58.2084 75.6483 58.2951 75.6483C58.8577 75.6483 59.3642 76.0329 59.4891 76.5967C59.562 76.9243 59.492 77.2503 59.3199 77.5111C59.1505 77.7679 58.8827 77.9614 58.5549 78.0318C57.2709 78.3084 55.9806 78.6429 54.7203 79.027C54.6 79.0636 54.4782 79.081 54.3585 79.081Z" fill="#FDAB76"/>
<path fill-rule="evenodd" clip-rule="evenodd" d="M79.4868 78.2451C79.3929 78.2451 79.2974 78.2344 79.2018 78.212C77.9218 77.9112 76.6132 77.6618 75.311 77.4705C74.6427 77.3725 74.1814 76.7587 74.2812 76.1003C74.3724 75.5025 74.8945 75.0725 75.4908 75.0725C75.5508 75.0725 75.6112 75.0768 75.6723 75.0858C77.0434 75.2872 78.422 75.55 79.7698 75.8665C80.4272 76.0211 80.833 76.6713 80.6766 77.3191C80.6431 77.4571 80.5868 77.584 80.5124 77.6964C80.2889 78.0352 79.9025 78.2451 79.4868 78.2451Z" fill="#FDAB76"/>
<path fill-rule="evenodd" clip-rule="evenodd" d="M64.8317 77.1096C64.1984 77.1096 63.662 76.6289 63.6124 75.9967C63.561 75.3329 64.0653 74.7537 64.7386 74.702C65.9858 74.6074 67.2509 74.5596 68.5049 74.5596C68.6403 74.5596 68.7753 74.56 68.9104 74.5613C69.5864 74.567 70.1298 75.1113 70.1238 75.7771C70.1216 76.0152 70.0498 76.2366 69.9271 76.4228C69.7085 76.7541 69.3295 76.9726 68.8998 76.9726C68.8964 76.9726 68.8932 76.9726 68.8899 76.9726C68.7568 76.9715 68.6235 76.9708 68.4902 76.9708C67.3031 76.9708 66.1066 77.0165 64.9269 77.106C64.895 77.1083 64.8633 77.1096 64.8317 77.1096Z" fill="#FDAB76"/>
<path fill-rule="evenodd" clip-rule="evenodd" d="M20.8029 125.359C20.1453 125.359 19.6014 124.844 19.5807 124.192C19.5601 123.537 19.5525 122.873 19.5588 122.216C19.5639 121.553 20.1114 121.021 20.7819 121.021C20.7859 121.021 20.7899 121.021 20.7939 121.021C21.4697 121.027 22.0127 121.572 22.0063 122.238C22.0007 122.863 22.0074 123.495 22.0276 124.116C22.0358 124.372 21.9624 124.611 21.831 124.809C21.6201 125.13 21.2588 125.346 20.8421 125.359C20.829 125.359 20.816 125.359 20.8029 125.359Z" fill="#FDAB76"/>
<path fill-rule="evenodd" clip-rule="evenodd" d="M71.4156 170.788C70.7748 170.788 70.2366 170.297 70.1954 169.658C70.1526 168.993 70.665 168.42 71.3394 168.379C72.6307 168.299 73.9361 168.163 75.2196 167.975C75.2804 167.967 75.3406 167.962 75.4001 167.962C75.9969 167.962 76.5195 168.393 76.6092 168.992C76.6548 169.295 76.582 169.587 76.4251 169.825C76.2406 170.105 75.9394 170.308 75.5778 170.36C74.2273 170.558 72.8532 170.7 71.4942 170.785C71.4679 170.787 71.4416 170.788 71.4156 170.788ZM64.9135 170.755C64.8834 170.755 64.8529 170.753 64.8225 170.75C63.4611 170.652 62.0881 170.494 60.7421 170.283C60.0744 170.179 59.6196 169.56 59.7262 168.903C59.8222 168.31 60.3427 167.887 60.9338 167.887C60.9979 167.887 61.0626 167.891 61.1278 167.902C62.4058 168.103 63.7093 168.253 65.0026 168.346C65.6768 168.395 66.1828 168.973 66.1331 169.637C66.1172 169.847 66.0482 170.04 65.9394 170.204C65.7198 170.537 65.3387 170.755 64.9135 170.755ZM81.7522 169.007C81.2214 169.007 80.7328 168.666 80.5772 168.139C80.3884 167.498 80.7618 166.829 81.4112 166.644C82.654 166.289 83.8982 165.876 85.1085 165.419C85.2528 165.364 85.4009 165.339 85.5467 165.339C86.0389 165.339 86.5028 165.634 86.6897 166.112C86.8354 166.488 86.7788 166.891 86.5725 167.203C86.4366 167.408 86.2358 167.576 85.9852 167.67C84.7114 168.152 83.4024 168.586 82.0942 168.96C81.9802 168.992 81.8652 169.007 81.7522 169.007ZM54.5949 168.856C54.4767 168.856 54.3565 168.839 54.2374 168.802C52.9348 168.412 51.632 167.961 50.3645 167.462C49.7369 167.214 49.4311 166.513 49.6823 165.895C49.8733 165.424 50.3337 165.137 50.8201 165.137C50.9709 165.137 51.1243 165.164 51.2729 165.222C52.4769 165.697 53.7141 166.125 54.9513 166.496C55.5978 166.69 55.9623 167.364 55.7652 168.002C55.7309 168.112 55.6818 168.215 55.6209 168.307C55.3958 168.649 55.0074 168.856 54.5949 168.856ZM91.4445 165.056C91.0124 165.056 90.5938 164.831 90.371 164.431C90.0451 163.847 90.2617 163.115 90.8542 162.794C91.9911 162.179 93.1134 161.509 94.1896 160.804C94.3979 160.668 94.6332 160.603 94.8659 160.603C95.2622 160.603 95.6509 160.791 95.8866 161.141C96.1653 161.555 96.1514 162.074 95.8933 162.466C95.8052 162.6 95.688 162.718 95.5446 162.812C94.4112 163.555 93.2298 164.259 92.0328 164.906C91.8458 165.007 91.6437 165.056 91.4445 165.056ZM44.9573 164.774C44.753 164.774 44.5457 164.723 44.3553 164.617C43.4822 164.13 42.6133 163.61 41.7735 163.072C41.4694 162.878 41.1684 162.68 40.87 162.48C40.3116 162.106 40.1515 161.356 40.5479 160.805C40.7846 160.463 41.169 160.278 41.5602 160.278C41.7976 160.278 42.0373 160.346 42.2484 160.488C42.5317 160.677 42.8183 160.867 43.1074 161.051C43.906 161.563 44.7313 162.055 45.5615 162.519C46.1496 162.848 46.3564 163.583 46.0232 164.163C46.0107 164.183 45.9977 164.205 45.9839 164.226C45.752 164.578 45.36 164.774 44.9573 164.774ZM100.02 159.116C99.6805 159.116 99.3439 158.977 99.1019 158.709C98.6548 158.21 98.7029 157.448 99.2077 157.007C100.18 156.161 101.126 155.264 102.019 154.344C102.259 154.095 102.581 153.97 102.903 153.97C103.208 153.97 103.512 154.08 103.75 154.305C104.182 154.71 104.245 155.354 103.931 155.831C103.891 155.894 103.842 155.953 103.79 156.008C102.849 156.979 101.854 157.923 100.83 158.813C100.597 159.015 100.307 159.116 100.02 159.116ZM107.061 151.458C106.812 151.458 106.562 151.384 106.344 151.229C105.798 150.84 105.674 150.087 106.068 149.547C106.822 148.519 107.543 147.444 108.219 146.339C108.447 145.963 108.852 145.755 109.269 145.755C109.484 145.755 109.702 145.812 109.9 145.929C110.479 146.273 110.665 147.013 110.315 147.583C110.022 148.063 109.722 148.535 109.416 148.999C108.979 149.663 108.521 150.322 108.054 150.958C107.815 151.285 107.44 151.458 107.061 151.458ZM112.24 142.468C112.078 142.468 111.915 142.437 111.756 142.37C111.136 142.107 110.849 141.398 111.117 140.786C111.197 140.604 111.275 140.422 111.352 140.239C111.65 140.98 111.963 141.723 112.285 142.468C112.271 142.468 112.256 142.468 112.24 142.468Z" fill="#FDAB76"/>
<path fill-rule="evenodd" clip-rule="evenodd" d="M116.085 122.245C115.43 122.245 114.888 121.734 114.864 121.083C114.84 120.464 114.805 119.833 114.755 119.208C114.702 118.543 115.207 117.966 115.88 117.913C115.912 117.91 115.944 117.91 115.976 117.91C116.609 117.91 117.145 118.39 117.196 119.022C117.247 119.68 117.286 120.343 117.31 120.995C117.319 121.252 117.246 121.494 117.113 121.696C116.904 122.013 116.545 122.229 116.132 122.243C116.116 122.245 116.101 122.245 116.085 122.245Z" fill="#FDAB76"/>
<path fill-rule="evenodd" clip-rule="evenodd" d="M101.762 107.615C101.689 107.386 101.474 107.228 101.23 107.224L94.2699 107.072C92.5979 104.326 90.4691 101.822 87.9216 99.6861L88.9149 92.9025C88.9497 92.6644 88.8274 92.4309 88.6104 92.3209L81.185 88.5568C80.968 88.4466 80.7041 88.4843 80.5278 88.6506L75.5011 93.3891C72.2551 92.5889 68.9494 92.3376 65.7084 92.5937L61.5386 87.102C61.3924 86.9094 61.1383 86.8295 60.9061 86.9029L52.9531 89.4129C52.7209 89.4863 52.5611 89.6968 52.5558 89.9371L52.4029 96.7933C49.6144 98.4403 47.0725 100.537 44.9032 103.047L38.0167 102.068C37.7751 102.033 37.538 102.153 37.4263 102.368L33.6047 109.682C33.493 109.896 33.5313 110.155 33.7001 110.329L38.5108 115.281C37.6985 118.477 37.4433 121.734 37.7033 124.926L32.1279 129.033C31.9326 129.177 31.8512 129.428 31.9258 129.657L34.474 137.49C34.5484 137.719 34.7623 137.877 35.0061 137.881L41.9669 138.033C43.6389 140.78 45.7676 143.283 48.3151 145.419L47.3218 152.202C47.2869 152.44 47.4092 152.674 47.6262 152.785L55.0517 156.548C55.2687 156.658 55.5327 156.621 55.7089 156.455L60.7357 151.716C63.9816 152.516 67.2875 152.767 70.5285 152.512L74.6981 158.003C74.8443 158.196 75.0983 158.276 75.3309 158.202L83.2837 155.692C83.516 155.62 83.6755 155.408 83.681 155.168L83.8338 148.313C86.6224 146.664 89.1641 144.568 91.3337 142.058L98.2205 143.037C98.4609 143.072 98.6981 142.952 98.8103 142.737L102.632 135.423C102.743 135.209 102.706 134.95 102.536 134.776L97.7253 129.824C98.5378 126.628 98.7926 123.371 98.533 120.179L104.108 116.072C104.304 115.928 104.386 115.677 104.31 115.448L101.762 107.615Z" fill="#FDAB76"/>
<path fill-rule="evenodd" clip-rule="evenodd" d="M74.4142 128.019C71.353 131.439 66.0384 131.769 62.566 128.752C60.8839 127.292 59.8802 125.274 59.7396 123.069C59.5988 120.865 60.3374 118.739 61.821 117.083C64.8823 113.662 70.1969 113.334 73.6691 116.349C76.8279 119.093 77.3896 123.672 75.1599 127.052C74.9389 127.386 74.69 127.71 74.4142 128.019Z" fill="#FEE9D1"/>
<path fill-rule="evenodd" clip-rule="evenodd" d="M85.2338 133.701C85.6169 133.121 85.9723 132.519 86.2985 131.894C86.401 131.698 86.5004 131.501 86.5967 131.3C87.0709 130.317 87.4648 129.297 87.7724 128.257L87.7852 128.214C87.7969 128.175 87.8086 128.134 87.8198 128.094C87.8424 128.015 87.8642 127.937 87.8858 127.858C87.9426 127.651 87.8536 127.439 87.6805 127.329C87.6384 127.302 87.5913 127.281 87.5403 127.267C87.2793 127.198 87.0113 127.351 86.9406 127.608C86.5789 128.931 86.0699 130.225 85.4278 131.454C82.2405 137.555 76.1957 141.283 69.7245 141.872C66.1252 142.201 62.3939 141.556 58.9484 139.811C58.3441 139.504 57.7599 139.17 57.1982 138.81C53.4157 136.388 50.6172 132.789 49.2223 128.5C47.6195 123.575 48.0606 118.328 50.4637 113.729C55.4279 104.23 67.304 100.485 76.943 105.371C77.5374 105.672 78.1141 106.002 78.6707 106.359C81.0834 107.904 83.1261 109.952 84.6449 112.362C84.6841 112.424 84.7353 112.474 84.7939 112.512C84.9478 112.61 85.1524 112.62 85.3188 112.517C85.5483 112.377 85.6199 112.08 85.4766 111.852C83.882 109.322 81.7376 107.172 79.2046 105.551C78.6203 105.177 78.0152 104.829 77.3914 104.514C67.2713 99.3833 54.7999 103.322 49.5931 113.287C47.07 118.116 46.6073 123.622 48.2897 128.795C49.7541 133.297 52.6921 137.075 56.6629 139.618C57.2528 139.995 57.8662 140.346 58.5 140.668C63.4026 143.154 68.9939 143.609 74.2441 141.953C78.816 140.51 82.6528 137.615 85.2338 133.701Z" fill="#FEE9D1"/>
<path fill-rule="evenodd" clip-rule="evenodd" d="M140.558 63.2264C140.531 63.0557 140.563 62.8747 140.662 62.7162C140.795 62.5225 141.016 62.3965 141.248 62.3741C141.016 62.6578 140.789 62.9395 140.558 63.2264Z" fill="#FDAB76"/>
<path fill-rule="evenodd" clip-rule="evenodd" d="M121.575 121.831C121.335 121.811 121.095 121.787 120.856 121.76C120.724 121.746 120.604 121.7 120.503 121.629C120.458 121.266 120.413 120.897 120.373 120.526C120.513 120.371 120.718 120.276 120.939 120.276C120.966 120.276 120.994 120.278 121.022 120.279C121.146 120.294 121.271 120.306 121.394 120.319C121.45 120.83 121.511 121.335 121.575 121.831Z" fill="#FDAB76"/>
<path fill-rule="evenodd" clip-rule="evenodd" d="M128.66 121.68C128.288 121.68 127.963 121.408 127.913 121.034C127.857 120.627 128.148 120.253 128.562 120.198C129.804 120.035 131.051 119.795 132.269 119.486C132.333 119.47 132.395 119.462 132.458 119.462C132.794 119.462 133.102 119.685 133.19 120.021C133.245 120.231 133.203 120.444 133.091 120.613C132.992 120.763 132.838 120.88 132.647 120.927C131.371 121.252 130.064 121.503 128.761 121.674C128.727 121.678 128.693 121.68 128.66 121.68ZM136.136 119.776C135.835 119.776 135.548 119.596 135.432 119.303C135.278 118.92 135.471 118.488 135.86 118.338C137.029 117.888 138.181 117.361 139.285 116.774C139.399 116.714 139.521 116.685 139.642 116.685C139.912 116.685 140.171 116.827 140.309 117.077C140.444 117.325 140.423 117.615 140.277 117.836C140.21 117.937 140.117 118.024 140.003 118.085C138.844 118.699 137.636 119.252 136.412 119.726C136.32 119.76 136.227 119.776 136.136 119.776ZM142.928 116.169C142.691 116.169 142.458 116.059 142.311 115.855C142.069 115.519 142.149 115.056 142.49 114.816C143.513 114.103 144.502 113.32 145.434 112.486C145.578 112.357 145.761 112.294 145.942 112.294C146.147 112.294 146.353 112.376 146.502 112.537C146.737 112.792 146.758 113.167 146.575 113.443C146.542 113.495 146.498 113.545 146.45 113.59C145.474 114.463 144.436 115.283 143.364 116.032C143.232 116.125 143.078 116.169 142.928 116.169ZM148.638 111.051C148.463 111.051 148.287 110.993 148.144 110.871C147.829 110.603 147.796 110.134 148.064 109.822C148.881 108.887 149.649 107.891 150.348 106.862C150.494 106.645 150.732 106.53 150.976 106.53C151.122 106.53 151.268 106.571 151.396 106.657C151.741 106.882 151.835 107.34 151.611 107.681L151.604 107.689C150.872 108.769 150.067 109.812 149.212 110.792C149.061 110.964 148.849 111.051 148.638 111.051ZM152.928 104.731C152.814 104.731 152.697 104.704 152.587 104.649C152.215 104.464 152.066 104.016 152.255 103.649C152.822 102.546 153.329 101.397 153.758 100.235C153.87 99.935 154.16 99.7455 154.47 99.7455C154.555 99.7455 154.641 99.7598 154.726 99.7913C155.119 99.9318 155.321 100.358 155.178 100.745C154.729 101.962 154.199 103.166 153.603 104.322C153.59 104.347 153.577 104.369 153.563 104.391C153.42 104.608 153.178 104.731 152.928 104.731ZM155.566 97.5812C155.51 97.5812 155.454 97.575 155.396 97.5621C154.989 97.4699 154.736 97.0699 154.829 96.6694C155.111 95.4641 155.321 94.2298 155.451 93.0006C155.492 92.6181 155.821 92.3335 156.202 92.3335C156.229 92.3335 156.255 92.3348 156.281 92.3374C156.696 92.3804 156.999 92.7465 156.954 93.1555C156.818 94.4448 156.598 95.7398 156.303 97.0037C156.282 97.091 156.247 97.1712 156.199 97.2422C156.061 97.4514 155.822 97.5812 155.566 97.5812Z" fill="#FDAB76"/>
<path fill-rule="evenodd" clip-rule="evenodd" d="M148.688 70.0722C148.475 70.0722 148.263 69.9841 148.114 69.8125C147.715 69.3547 147.297 68.9029 146.872 68.4698C146.582 68.1743 146.587 67.7021 146.89 67.4169C147.036 67.277 147.226 67.2074 147.415 67.2074C147.612 67.2074 147.81 67.2833 147.959 67.4342C148.404 67.8889 148.843 68.3628 149.262 68.8425C149.484 69.0995 149.499 69.4629 149.321 69.733C149.282 69.791 149.236 69.845 149.18 69.8929C149.037 70.0132 148.863 70.0722 148.688 70.0722Z" fill="#FDAB76"/>
<path fill-rule="evenodd" clip-rule="evenodd" d="M95.0995 78.3017C95.0011 78.3017 94.9013 78.2826 94.8051 78.2425C94.4205 78.0822 94.241 77.6455 94.4038 77.2667C94.8543 76.2183 95.371 75.1762 95.9374 74.1722C96.0226 74.0191 96.11 73.8682 96.1981 73.7171C96.3297 73.4767 96.5847 73.3441 96.8473 73.3441C96.9784 73.3441 97.1114 73.3771 97.2316 73.4457C97.5922 73.6516 97.7156 74.1068 97.5073 74.4633C97.424 74.6041 97.3422 74.7466 97.2605 74.8927C96.7183 75.8537 96.2255 76.8476 95.7957 77.8473C95.7782 77.8885 95.7569 77.9273 95.7332 77.9635C95.5923 78.1772 95.3511 78.3017 95.0995 78.3017ZM99.0186 71.6034C98.8615 71.6034 98.7012 71.5546 98.565 71.4532C98.2317 71.206 98.1692 70.7434 98.416 70.4101C99.2237 69.3552 100.104 68.3417 101.031 67.3982C101.18 67.2474 101.378 67.1717 101.575 67.1717C101.764 67.1717 101.955 67.2415 102.1 67.3815C102.365 67.6331 102.402 68.0285 102.209 68.3212C102.182 68.3608 102.152 68.3987 102.118 68.4341C101.233 69.3337 100.394 70.3003 99.6243 71.3072C99.4753 71.5011 99.2477 71.6034 99.0186 71.6034Z" fill="#FDAB76"/>
<path fill-rule="evenodd" clip-rule="evenodd" d="M144.513 66.0862C144.346 66.0862 144.179 66.0322 144.038 65.9213C143.218 65.2705 142.354 64.6536 141.471 64.0883C141.285 63.969 141.096 63.8515 140.905 63.7353C140.711 63.6168 140.591 63.4261 140.557 63.2202C140.788 62.9334 141.016 62.6516 141.248 62.368C141.274 62.3656 141.298 62.3643 141.323 62.3643C141.453 62.3643 141.585 62.3975 141.703 62.47C141.902 62.5917 142.099 62.7148 142.294 62.8395C143.221 63.4323 144.126 64.079 144.987 64.7617C145.291 65.0031 145.355 65.4303 145.147 65.7466C145.133 65.7678 145.118 65.7883 145.102 65.8088C144.952 65.9911 144.734 66.0862 144.513 66.0862Z" fill="#FDAB76"/>
<path fill-rule="evenodd" clip-rule="evenodd" d="M104.481 66.0511C104.26 66.0511 104.04 65.9561 103.891 65.7733C103.63 65.4527 103.681 64.9856 104.006 64.7261C105.047 63.9015 106.152 63.1322 107.29 62.4395C107.415 62.3644 107.551 62.3286 107.688 62.3286C107.941 62.3286 108.188 62.4539 108.33 62.6817C108.489 62.9349 108.476 63.2452 108.322 63.479C108.263 63.5685 108.185 63.6471 108.085 63.7068C107 64.367 105.947 65.1002 104.954 65.8868C104.814 65.9973 104.647 66.0511 104.481 66.0511Z" fill="#FDAB76"/>
<path fill-rule="evenodd" clip-rule="evenodd" d="M137.843 62.0095C137.737 62.0095 137.63 61.9874 137.527 61.9405C136.367 61.4121 135.165 60.9496 133.952 60.5663C133.553 60.4405 133.335 60.0219 133.463 59.6301C133.566 59.3155 133.862 59.1128 134.183 59.1128C134.26 59.1128 134.337 59.1243 134.413 59.1485C135.684 59.55 136.946 60.0347 138.162 60.5891C138.54 60.7618 138.705 61.2042 138.531 61.5779C138.515 61.6104 138.497 61.6418 138.478 61.6713C138.335 61.8859 138.095 62.0095 137.843 62.0095Z" fill="#FDAB76"/>
<path fill-rule="evenodd" clip-rule="evenodd" d="M111.153 61.9924C110.868 61.9924 110.594 61.8312 110.466 61.558C110.292 61.184 110.458 60.7417 110.837 60.5707C112.052 60.022 113.315 59.5415 114.591 59.1419C114.666 59.1181 114.743 59.1069 114.818 59.1069C115.14 59.1069 115.437 59.3091 115.539 59.6258C115.61 59.8473 115.571 60.0773 115.453 60.2577C115.362 60.3971 115.22 60.5071 115.047 60.5616C113.831 60.9425 112.627 61.401 111.467 61.9245C111.366 61.9706 111.259 61.9924 111.153 61.9924ZM125.73 58.2579C125.783 58.0404 125.931 57.8624 126.125 57.7653C125.993 57.9293 125.862 58.0931 125.73 58.2579Z" fill="#FDAB76"/>
<path fill-rule="evenodd" clip-rule="evenodd" d="M130.369 59.6535C130.322 59.6535 130.276 59.6494 130.228 59.6407C128.974 59.4085 127.692 59.2518 126.418 59.1741C126.002 59.1487 125.684 58.7954 125.71 58.3851C125.713 58.3419 125.719 58.2996 125.729 58.2588C125.86 58.094 125.992 57.9302 126.123 57.7662C126.226 57.7149 126.341 57.6861 126.463 57.6861C126.479 57.6861 126.495 57.6866 126.511 57.6877C127.848 57.7687 129.192 57.9338 130.506 58.1769C130.917 58.253 131.188 58.6421 131.111 59.0464C131.091 59.1446 131.055 59.235 131.002 59.3143C130.864 59.5225 130.627 59.6535 130.369 59.6535Z" fill="#FDAB76"/>
<path fill-rule="evenodd" clip-rule="evenodd" d="M118.631 59.6502C118.275 59.6502 117.957 59.4005 117.889 59.0427C117.813 58.6396 118.082 58.2497 118.493 58.1736C119.805 57.9311 121.15 57.7669 122.486 57.685C122.502 57.6841 122.519 57.6836 122.535 57.6836C122.93 57.6836 123.264 57.9878 123.288 58.3824C123.297 58.5479 123.253 58.7041 123.168 58.8334C123.041 59.0246 122.829 59.1564 122.579 59.1716C121.305 59.2494 120.023 59.406 118.772 59.6374C118.725 59.6461 118.677 59.6502 118.631 59.6502Z" fill="#FDAB76"/>
<path fill-rule="evenodd" clip-rule="evenodd" d="M124.453 121.953C123.493 121.953 122.53 121.912 121.576 121.828C121.512 121.333 121.451 120.828 121.395 120.316C122.403 120.414 123.424 120.464 124.44 120.464C124.559 120.464 124.676 120.463 124.795 120.461C124.798 120.461 124.803 120.461 124.803 120.461C125.218 120.461 125.554 120.79 125.559 121.199C125.561 121.352 125.516 121.494 125.437 121.612C125.304 121.814 125.075 121.948 124.812 121.952C124.692 121.953 124.572 121.953 124.453 121.953ZM120.504 121.626C120.286 121.475 120.157 121.214 120.189 120.935C120.206 120.775 120.274 120.635 120.375 120.523C120.415 120.894 120.459 121.263 120.504 121.626Z" fill="#FDAB76"/>
<path fill-rule="evenodd" clip-rule="evenodd" d="M156.369 89.9815C155.957 89.9813 155.621 89.6572 155.613 89.2509C155.602 88.6427 155.571 88.0324 155.525 87.4368C155.493 87.0267 155.805 86.6693 156.22 86.6363C156.239 86.6349 156.259 86.6341 156.279 86.6341C156.671 86.6341 157.001 86.931 157.033 87.3213C157.082 87.9461 157.113 88.5857 157.126 89.2228C157.127 89.3774 157.082 89.5215 157.004 89.6419C156.871 89.8422 156.643 89.9761 156.384 89.9813C156.379 89.9813 156.374 89.9815 156.369 89.9815Z" fill="#FDAB76"/>
<path fill-rule="evenodd" clip-rule="evenodd" d="M146.77 79.6821C146.719 79.529 146.576 79.4239 146.413 79.4202L141.755 79.3195C140.637 77.4816 139.212 75.8062 137.507 74.3764L138.172 69.8373C138.196 69.678 138.114 69.5219 137.968 69.4482L133 66.9294C132.854 66.8557 132.678 66.881 132.56 66.9921L129.196 70.163C127.024 69.6275 124.813 69.4594 122.643 69.6307L119.852 65.9559C119.755 65.8271 119.585 65.7736 119.429 65.8227L114.109 67.5023C113.953 67.5512 113.846 67.6922 113.843 67.8531L113.74 72.4409C111.875 73.5429 110.173 74.9461 108.721 76.6252L104.113 75.9704C103.951 75.9475 103.793 76.028 103.719 76.171L101.161 81.0654C101.086 81.2084 101.111 81.3822 101.225 81.4986L104.443 84.8118C103.9 86.9513 103.73 89.1302 103.903 91.2663L100.172 94.0146C100.043 94.1111 99.988 94.2786 100.038 94.4317L101.743 99.674C101.793 99.8271 101.935 99.9313 102.099 99.936L106.756 100.035C107.876 101.875 109.299 103.549 111.004 104.98L110.339 109.518C110.317 109.677 110.399 109.834 110.543 109.908L115.513 112.426C115.657 112.5 115.835 112.475 115.952 112.364L119.316 109.193C121.487 109.728 123.7 109.897 125.869 109.725L128.659 113.4C128.757 113.529 128.926 113.583 129.082 113.532L134.404 111.853C134.56 111.804 134.665 111.663 134.67 111.502L134.773 106.915C136.638 105.813 138.339 104.41 139.791 102.73L144.398 103.385C144.56 103.409 144.719 103.328 144.794 103.185L147.35 98.2904C147.425 98.1473 147.4 97.9734 147.288 97.8572L144.068 94.5439C144.611 92.4045 144.783 90.2256 144.608 88.0894L148.339 85.341C148.47 85.2447 148.525 85.0772 148.475 84.9241L146.77 79.6821Z" fill="#FDAB76"/>
<path fill-rule="evenodd" clip-rule="evenodd" d="M128.545 93.4097C127.535 94.5387 126.139 95.2121 124.615 95.3065C123.091 95.4011 121.62 94.9052 120.474 93.91C118.11 91.8564 117.883 88.2964 119.966 85.9603C122.053 83.6311 125.673 83.4069 128.037 85.4605C129.183 86.4553 129.867 87.8301 129.963 89.3315C130.04 90.552 129.723 91.7375 129.058 92.7448C128.906 92.9762 128.734 93.1987 128.545 93.4097Z" fill="#FEE9D1"/>
<path fill-rule="evenodd" clip-rule="evenodd" d="M136.075 97.3608C136.335 96.9656 136.577 96.5543 136.801 96.1269C137.245 95.2781 137.603 94.3839 137.862 93.4667C137.874 93.4255 137.885 93.3842 137.896 93.3428C137.984 93.0233 137.846 92.6965 137.579 92.5251C137.515 92.4834 137.441 92.4511 137.362 92.4302C136.96 92.3232 136.547 92.5598 136.436 92.9557C136.202 93.8143 135.872 94.6516 135.457 95.4448V95.4452C135.434 95.4887 135.41 95.5323 135.388 95.5752C134.388 97.4438 132.953 98.9962 131.216 100.137C130.272 100.756 129.237 101.254 128.133 101.613L128.106 101.621C128.078 101.631 128.051 101.639 128.024 101.648C124.787 102.67 121.338 102.389 118.315 100.856C117.924 100.658 117.546 100.442 117.182 100.209C114.733 98.641 112.922 96.3105 112.019 93.534C110.982 90.3446 111.267 86.9488 112.823 83.9714C114.379 80.9965 117.019 78.7914 120.256 77.7689C123.493 76.7473 126.942 77.0282 129.965 78.5609C130.349 78.7555 130.723 78.9693 131.083 79.1999C132.644 80.2002 133.968 81.5256 134.95 83.0862C135.011 83.1823 135.09 83.2603 135.181 83.3178C135.418 83.4699 135.734 83.4835 135.99 83.3263C136.345 83.1084 136.455 82.6506 136.234 82.3005C135.135 80.5545 133.655 79.0711 131.909 77.952C131.505 77.6936 131.086 77.4548 130.657 77.2366C127.274 75.522 123.416 75.2075 119.794 76.3509C116.173 77.4944 113.217 79.9555 111.478 83.2897C109.738 86.6209 109.417 90.4202 110.579 93.9884C111.589 97.0948 113.616 99.7018 116.355 101.456C116.762 101.716 117.185 101.958 117.623 102.18C124.171 105.5 132.146 103.317 136.075 97.3608Z" fill="#FEE9D1"/>
<path fill-rule="evenodd" clip-rule="evenodd" d="M302.421 147.903L280.438 170.052L306.807 163.115L302.421 147.903Z" fill="#D2FCF4"/>
<path fill-rule="evenodd" clip-rule="evenodd" d="M433.226 157.073L308.315 163.043C305.107 163.196 302.421 160.677 302.421 157.514V106.895C302.421 101.394 306.858 96.8867 312.44 96.7165L425.018 93.2852C433.401 93.2852 440.197 99.9793 440.197 108.237V149.865C440.197 153.714 437.13 156.885 433.226 157.073Z" fill="#D2FCF4"/>
<path fill-rule="evenodd" clip-rule="evenodd" d="M422.946 104.417L323.065 108.098C322.084 108.134 321.312 108.775 321.345 109.525L321.382 110.39C321.414 111.132 322.224 111.702 323.193 111.667L423.078 108.074C424.06 108.04 424.833 107.399 424.802 106.647L424.759 105.694C424.727 104.95 423.917 104.38 422.946 104.417Z" fill="#22B8CF"/>
<path fill-rule="evenodd" clip-rule="evenodd" d="M414.007 129.322L314.125 132.985C313.145 133.021 312.374 133.684 312.407 134.461L312.447 135.356C312.479 136.124 313.29 136.716 314.26 136.682L414.146 133.111C415.127 133.076 415.899 132.415 415.866 131.637L415.823 130.648C415.789 129.878 414.98 129.286 414.007 129.322Z" fill="#22B8CF"/>
<path fill-rule="evenodd" clip-rule="evenodd" d="M425.677 139.743L314.33 143.884C313.237 143.925 312.374 144.597 312.408 145.382L312.447 146.286C312.481 147.063 313.382 147.657 314.463 147.617L425.813 143.57C426.908 143.53 427.771 142.858 427.739 142.073L427.695 141.076C427.661 140.297 426.759 139.704 425.677 139.743Z" fill="#22B8CF"/>
<path fill-rule="evenodd" clip-rule="evenodd" d="M368.183 119.102L313.743 120.665C313.21 120.681 312.809 121.404 312.854 122.275L312.904 123.281C312.947 124.144 313.409 124.828 313.937 124.813L368.381 123.355C368.917 123.341 369.317 122.618 369.274 121.745L369.218 120.635C369.175 119.771 368.713 119.086 368.183 119.102Z" fill="#22B8CF"/>
<path fill-rule="evenodd" clip-rule="evenodd" d="M428.171 117.248L376.714 118.7C376.209 118.714 375.834 119.437 375.877 120.308L375.929 121.314C375.972 122.178 376.411 122.863 376.911 122.848L428.371 121.5C428.877 121.488 429.252 120.765 429.209 119.892L429.153 118.782C429.11 117.919 428.671 117.233 428.171 117.248Z" fill="#22B8CF"/>
<path fill-rule="evenodd" clip-rule="evenodd" d="M112.758 436.264C112.758 436.264 111.729 442.005 111.224 447.688C111.026 449.909 112.765 451.838 115.027 451.931C122.71 452.247 139.147 452.859 145.044 452.6C145.931 452.561 146.511 451.667 146.182 450.854C145.907 450.174 145.376 449.623 144.701 449.318L117.552 437.028L112.758 436.264Z" fill="#22B8CF"/>
<path fill-rule="evenodd" clip-rule="evenodd" d="M111.916 432.89L112.743 439.757C112.743 439.757 117.498 441.938 120.746 439.482L118.777 431.829L111.916 432.89Z" fill="#FDBAB9"/>
<path fill-rule="evenodd" clip-rule="evenodd" d="M112.537 303.775C112.179 305.568 110.618 393.269 120.136 432.569C120.29 433.212 119.96 433.872 119.342 434.121C117.882 434.708 115.019 435.559 111.59 435.674C110.529 435.708 109.575 435.029 109.276 434.025C106.556 424.905 93.5197 379.218 91.8192 335.576C89.9189 286.809 91.8192 333.915 91.8192 333.915L92.9336 303.771L112.537 303.775Z" fill="#212B36"/>
<path fill-rule="evenodd" clip-rule="evenodd" d="M81.5273 439.258C81.5273 439.258 79.8883 442.158 78.3015 449.86C78.0151 451.25 79.0017 452.581 80.4357 452.72C82.9728 452.966 86.8787 453.282 90.0074 453.26C91.4497 453.25 92.5754 452.014 92.4015 450.603C92.055 447.792 90.9753 443.179 87.64 439.585L81.5273 439.258Z" fill="#22B8CF"/>
<path fill-rule="evenodd" clip-rule="evenodd" d="M80.0879 430.421L82.0208 440.806C82.0208 440.806 83.9321 442.206 87.7127 441.191L86.79 430.017L80.0879 430.421Z" fill="#FDBAB9"/>
<path fill-rule="evenodd" clip-rule="evenodd" d="M74.8676 306.468C67.0837 352.739 76.5561 420.831 79.7506 434.159C79.9461 434.975 80.6147 435.6 81.4544 435.736C82.8804 435.97 85.228 436.159 87.5427 435.498C88.34 435.269 88.9003 434.56 88.9328 433.744C89.3613 422.969 88.59 356.822 95.8428 330.681C96.2103 329.356 97.0324 328.201 98.1687 327.405L112.244 317.548L113.325 301.614L74.8676 306.468Z" fill="#212B36"/>
<path fill-rule="evenodd" clip-rule="evenodd" d="M193.369 184.947C191.079 182.221 188.178 183.511 188.178 183.511C184.745 197.794 166.746 209.374 148.254 215.035C149.462 220.101 152.243 228.669 158.14 235.402C188.829 218.407 193.369 184.947 193.369 184.947Z" fill="#FDBAB9"/>
<path fill-rule="evenodd" clip-rule="evenodd" d="M192.812 185.642C193.053 186.393 190.275 187.536 188.641 184.466C188.585 182.995 187.676 176.69 188.569 175.49C193.324 169.105 202.542 161.1 202.542 161.1C204.101 162.615 202.818 164.102 202.818 164.102L198.345 168.691C199.281 170.356 200.422 171.761 200.955 173.776C201.361 175.301 201.112 176.931 200.33 178.319C199.547 179.713 198.474 181.523 197.463 182.941C195.546 185.623 192.812 185.642 192.812 185.642Z" fill="#FDBAB9"/>
<path fill-rule="evenodd" clip-rule="evenodd" d="M196.387 171.669L192.311 175.072L191.032 178.46L194.665 182.432C194.665 182.432 195.888 175.709 196.795 174.253C197.704 172.799 197.233 172.095 196.387 171.669Z" fill="#FDBAB9"/>
<path fill-rule="evenodd" clip-rule="evenodd" d="M124.466 218.795C101.14 218.415 75.4014 224.827 75.4014 224.827C68.4484 264.79 74.1857 310.886 74.1857 310.886C92.2446 315.551 112.616 308.034 112.616 308.034C115.618 291.329 129.622 244.321 129.622 244.321C141.019 242.927 150.408 239.688 158.14 235.405C152.243 228.672 149.462 220.104 148.254 215.038C140.007 217.564 131.662 218.912 124.466 218.795Z" fill="#116E95"/>
<path fill-rule="evenodd" clip-rule="evenodd" d="M84.3483 247.074L75.4011 224.825C75.4011 224.825 53.6126 239.408 50.0293 257.896C54.1463 258.196 61.6378 259.251 68.9706 262.897C70.582 254.168 84.3483 247.074 84.3483 247.074Z" fill="#116E95"/>
<path fill-rule="evenodd" clip-rule="evenodd" d="M100.45 285.234L113.801 239.309C113.953 238.788 114.404 238.407 114.952 238.344C117.37 238.067 124.38 237.287 132.471 236.613C142.22 235.8 153.541 235.141 160.306 235.702C161.267 235.781 161.849 236.783 161.421 237.636C157.573 245.301 141.751 276.484 133.827 286.699C133.564 287.039 133.157 287.236 132.726 287.231L101.749 286.949C100.847 286.939 100.203 286.088 100.45 285.234Z" fill="#22B8CF"/>
<path fill-rule="evenodd" clip-rule="evenodd" d="M133.856 232.634L143.536 231.046C144.05 230.961 144.473 231.447 144.308 231.935L143.351 234.795C143.268 235.044 143.047 235.224 142.782 235.259L133.468 236.486C132.987 236.549 132.59 236.116 132.7 235.651L133.293 233.153C133.357 232.885 133.579 232.68 133.856 232.634Z" fill="#77F0ED"/>
<path fill-rule="evenodd" clip-rule="evenodd" d="M126.607 240.71L127.405 236.618C127.486 236.208 127.828 235.898 128.25 235.856L147.802 233.902C148.459 233.835 148.986 234.43 148.832 235.063L147.589 240.161C147.489 240.569 147.129 240.865 146.704 240.885L127.599 241.832C126.977 241.864 126.49 241.311 126.607 240.71Z" fill="#77F0ED"/>
<path fill-rule="evenodd" clip-rule="evenodd" d="M103.39 268.007C103.39 268.007 78.9267 281.625 70.6725 269.997C68.9586 267.582 68.549 265.183 68.9711 262.895C61.6384 259.249 54.1468 258.194 50.0298 257.895C48.9495 263.468 49.5208 269.398 52.8459 275.388C67.3044 301.439 106.628 273.949 106.628 273.949L103.39 268.007Z" fill="#FDBAB9"/>
<path fill-rule="evenodd" clip-rule="evenodd" d="M103.674 274.142C103.674 274.142 101.815 266.609 102.565 263.936C103.316 261.264 104.769 257.829 109.614 258.591C114.458 259.355 120.173 261.366 120.173 261.366C120.173 261.366 119.885 264.847 116.204 263.723L118.486 265.464C118.486 265.464 118.16 268.25 115.05 266.762L117.173 269.07C117.173 269.07 115.838 271.359 113.55 269.891C111.261 268.423 110.163 275.049 103.674 274.142Z" fill="#FDBAB9"/>
<path fill-rule="evenodd" clip-rule="evenodd" d="M100.839 200.136L93.4163 221.278C93.2933 221.628 93.4393 222.017 93.7687 222.197C95.7918 223.298 103.081 226.482 111.865 220.997C112.78 220.425 113.403 219.493 113.543 218.435L115.946 200.136H100.839Z" fill="#FDBAB9"/>
<path fill-rule="evenodd" clip-rule="evenodd" d="M116.988 180.559C116.988 180.559 125.138 195.67 124.094 201.776C123.049 207.881 112.947 207.442 104.127 202.483L97.9629 186.166L116.988 180.559Z" fill="#FDBAB9"/>
<path fill-rule="evenodd" clip-rule="evenodd" d="M104.515 194.465C104.874 194.308 105.005 193.876 104.792 193.552C104.138 192.57 102.914 190.566 102.525 188.81C102.525 188.81 101.058 187.887 106.254 186.662C111.448 185.437 119.193 183.536 120.822 179.181C122.41 174.935 118.238 164.257 111.584 172.766C111.331 173.089 110.836 173.096 110.583 172.772C109.491 171.373 106.624 168.47 102.642 170.23C98.9155 171.877 98.4956 174.567 98.5469 175.923C98.5629 176.321 98.2007 176.632 97.8017 176.556C95.9185 176.202 91.3976 175.899 89.2875 180.466C87.5494 184.229 88.6791 186.359 89.7078 187.401C90.0414 187.738 89.8952 188.294 89.4381 188.431C88.2001 188.806 86.6012 189.839 86.7611 192.697C86.9826 196.646 91.4661 196.299 92.7426 196.119C92.9519 196.089 93.1624 196.16 93.3043 196.313C94.3987 197.507 99.3306 202.572 104.667 203.183C105.13 203.237 105.488 202.787 105.337 202.353L103.026 195.74C102.919 195.432 103.068 195.096 103.371 194.964L104.515 194.465Z" fill="#063963"/>
<path fill-rule="evenodd" clip-rule="evenodd" d="M105.446 195.412C105.446 195.412 99.6425 191.491 99.2178 194.794C98.7947 198.096 104.444 199.578 107.242 198.347L105.446 195.412Z" fill="#FDBAB9"/>
</svg>
