<svg width="106" height="32" viewBox="0 0 106 32" fill="none" xmlns="http://www.w3.org/2000/svg">
<g clip-path="url(#clip0_23099_4243)">
<mask id="mask0_23099_4243" style="mask-type:alpha" maskUnits="userSpaceOnUse" x="0" y="0" width="106" height="32">
<rect width="106" height="32" fill="#919EAB"/>
</mask>
<g mask="url(#mask0_23099_4243)">
<path d="M103.825 19.5555C103.507 19.5555 103.249 19.8135 103.249 20.1311C103.249 20.4487 103.507 20.7067 103.825 20.7067C104.142 20.7067 104.4 20.4487 104.4 20.1311C104.4 19.8135 104.142 19.5555 103.825 19.5555V19.5555ZM103.825 20.6154C103.557 20.6154 103.34 20.3976 103.34 20.1311C103.34 19.8634 103.558 19.6468 103.825 19.6468C104.092 19.6468 104.31 19.8646 104.31 20.1311C104.31 20.3976 104.092 20.6154 103.825 20.6154ZM104.012 20.0325C104.012 19.9279 103.938 19.8658 103.828 19.8658H103.644V20.3903H103.734V20.2005H103.833L103.928 20.3903H104.025L103.921 20.181C103.977 20.1554 104.012 20.1043 104.012 20.0325ZM103.825 20.1189H103.736V19.9449H103.825C103.885 19.9449 103.922 19.9753 103.922 20.0313C103.922 20.0885 103.884 20.1189 103.825 20.1189ZM34.4685 13.7301V12.3379H32.3341V20.6203H34.4685V15.6541C34.4685 14.7548 35.0454 14.313 35.9447 14.313H37.1129V12.338H36.115C35.3338 12.3379 34.6547 12.7456 34.4685 13.7301V13.7301ZM39.1123 9.06201C38.3822 9.06201 37.8224 9.63884 37.8224 10.369C37.8224 11.0821 38.3822 11.6589 39.1123 11.6589C39.8425 11.6589 40.4023 11.0821 40.4023 10.369C40.4022 9.63881 39.8425 9.06201 39.1123 9.06201ZM38.0475 20.6203H40.1771V12.3379H38.0475V20.6203ZM50.3214 16.4791C50.3214 18.8436 48.4047 20.7603 46.0402 20.7603C45.0861 20.7603 44.2209 20.4475 43.5273 19.9193V23.0517H41.3977V12.3379H43.5273V13.0389C44.2209 12.5107 45.0861 12.198 46.0402 12.198C48.4047 12.198 50.3214 14.1146 50.3214 16.4791V16.4791ZM48.1784 16.4791C48.1784 15.1953 47.1367 14.1536 45.8528 14.1536C44.569 14.1536 43.5273 15.1953 43.5273 16.4791C43.5273 17.763 44.569 18.8046 45.8528 18.8046C47.1367 18.8046 48.1784 17.7642 48.1784 16.4791ZM87.3352 15.7526L86.0927 15.4119C85.275 15.1989 84.9574 14.9482 84.9574 14.5162C84.9574 14.0952 85.4052 13.8007 86.0453 13.8007C86.655 13.8007 87.1332 14.1998 87.1332 14.7109V14.7584H89.0961V14.7109C89.0961 13.208 87.8707 12.198 86.0453 12.198C84.2382 12.198 82.9251 13.2068 82.9251 14.5977C82.9251 15.6796 83.6419 16.4949 84.8929 16.8332L86.083 17.1581C86.9872 17.4088 87.3231 17.6863 87.3231 18.184C87.3231 18.7085 86.8375 19.0614 86.1146 19.0614C85.3613 19.0614 84.8539 18.5843 84.8539 17.8761V17.8286H82.7705V17.8761C82.7705 19.5749 84.1384 20.7626 86.0976 20.7626C87.9851 20.7626 89.3553 19.6029 89.3553 18.0063C89.3553 17.2226 89.0048 16.198 87.3352 15.7526V15.7526ZM57.876 12.3379H60.0056V20.6203H57.876V19.9193C57.1824 20.4475 56.3171 20.7602 55.3631 20.7602C52.9986 20.7602 51.082 18.8436 51.082 16.4791C51.082 14.1146 52.9986 12.198 55.3631 12.198C56.3171 12.198 57.1824 12.5107 57.876 13.0388V12.3379ZM57.876 16.4791C57.876 15.1941 56.8343 14.1536 55.5505 14.1536C54.2666 14.1536 53.225 15.1953 53.225 16.4791C53.225 17.763 54.2666 18.8046 55.5505 18.8046C56.8355 18.8046 57.876 17.7642 57.876 16.4791ZM67.6954 9.39057H69.825V20.6215H67.6954V19.9205C67.0017 20.4487 66.1365 20.7615 65.1824 20.7615C62.8179 20.7615 60.9013 18.8448 60.9013 16.4803C60.9013 14.1158 62.8179 12.1992 65.1824 12.1992C66.1365 12.1992 67.0017 12.5119 67.6954 13.0401V9.39057ZM67.6954 16.4791C67.6954 15.1953 66.6536 14.1536 65.3698 14.1536C64.086 14.1536 63.0443 15.1953 63.0443 16.4791C63.0443 17.763 64.0847 18.8046 65.3698 18.8046C66.6536 18.8046 67.6954 17.7642 67.6954 16.4791ZM79.7124 20.6203H81.842V12.3379H79.7124V20.6203ZM80.7772 9.06201C80.0471 9.06201 79.4873 9.63884 79.4873 10.369C79.4873 11.0821 80.0471 11.6589 80.7772 11.6589C81.5074 11.6589 82.0672 11.0821 82.0672 10.369C82.0672 9.63881 81.5074 9.06201 80.7772 9.06201ZM98.5601 16.4791C98.5601 18.8436 96.6435 20.7603 94.2789 20.7603C91.9145 20.7603 89.9978 18.8436 89.9978 16.4791C89.9978 14.1146 91.9145 12.198 94.2789 12.198C96.6435 12.198 98.5601 14.1146 98.5601 16.4791ZM96.6045 16.4791C96.6045 15.1953 95.5628 14.1536 94.279 14.1536C92.9951 14.1536 91.9534 15.1953 91.9534 16.4791C91.9534 17.763 92.9939 18.8046 94.279 18.8046C95.5628 18.8046 96.6045 17.7642 96.6045 16.4791ZM33.3782 9.39057H25.209V11.2902H28.233V20.6203H30.3554V11.2902H33.3794V9.39057H33.3782ZM74.6914 18.352L72.7967 12.338H70.56L73.4015 20.6203H75.9643L78.8228 12.338H76.5861L74.6914 18.352ZM101.68 13.7301V12.3379H99.5458V20.6203H101.68V15.6541C101.68 14.7548 102.257 14.313 103.156 14.313H104.325V12.338H103.327C102.545 12.3379 101.868 12.7456 101.68 13.7301Z" fill="black"/>
<path d="M12.8914 26.7828C18.9066 26.7828 23.7828 21.9066 23.7828 15.8914C23.7828 9.87625 18.9066 5 12.8914 5C6.87625 5 2 9.87625 2 15.8914C2 21.9066 6.87625 26.7828 12.8914 26.7828Z" fill="#34E0A1"/>
<path d="M19.6176 13.7668L20.9319 12.3369H18.0174C16.5583 11.3402 14.7962 10.7598 12.8905 10.7598C10.9872 10.7598 9.23004 11.3415 7.77338 12.3369H4.85156L6.16584 13.7668C5.36025 14.5018 4.85523 15.5605 4.85523 16.7361C4.85523 18.9545 6.65385 20.7531 8.87229 20.7531C9.92615 20.7531 10.8863 20.3467 11.6031 19.6822L12.8906 21.0841L14.1781 19.6834C14.8948 20.3479 15.8537 20.7531 16.9076 20.7531C19.126 20.7531 20.9271 18.9545 20.9271 16.7361C20.9283 15.5593 20.4233 14.5006 19.6176 13.7668V13.7668ZM8.87348 19.4547C7.37179 19.4547 6.15491 18.2378 6.15491 16.7361C6.15491 15.2344 7.37182 14.0175 8.87348 14.0175C10.3751 14.0175 11.5921 15.2344 11.5921 16.7361C11.5921 18.2378 10.3751 19.4547 8.87348 19.4547V19.4547ZM12.8917 16.657C12.8917 14.8681 11.5909 13.3324 9.87379 12.6764C10.8023 12.2882 11.8209 12.0728 12.8905 12.0728C13.9602 12.0728 14.9799 12.2882 15.9085 12.6764C14.1926 13.3336 12.8917 14.8681 12.8917 16.657ZM16.9088 19.4547C15.4071 19.4547 14.1902 18.2378 14.1902 16.7361C14.1902 15.2344 15.4071 14.0175 16.9088 14.0175C18.4105 14.0175 19.6274 15.2344 19.6274 16.7361C19.6274 18.2378 18.4105 19.4547 16.9088 19.4547V19.4547ZM16.9088 15.3098C16.1214 15.3098 15.4838 15.9475 15.4838 16.7349C15.4838 17.5222 16.1214 18.1599 16.9088 18.1599C17.6961 18.1599 18.3338 17.5222 18.3338 16.7349C18.3338 15.9487 17.6961 15.3098 16.9088 15.3098ZM10.2985 16.7361C10.2985 17.5234 9.66082 18.1611 8.87348 18.1611C8.08615 18.1611 7.44848 17.5234 7.44848 16.7361C7.44848 15.9487 8.08615 15.311 8.87348 15.311C9.66082 15.3098 10.2985 15.9487 10.2985 16.7361Z" fill="black"/>
</g>
</g>
<defs>
<clipPath id="clip0_23099_4243">
<rect width="106" height="32" fill="white"/>
</clipPath>
</defs>
</svg>
