<svg width="106" height="32" viewBox="0 0 106 32" fill="none" xmlns="http://www.w3.org/2000/svg">
<g clip-path="url(#clip0_23099_4204)">
<mask id="mask0_23099_4204" style="mask-type:alpha" maskUnits="userSpaceOnUse" x="0" y="0" width="106" height="32">
<rect width="106" height="32" fill="#919EAB"/>
</mask>
<g mask="url(#mask0_23099_4204)">
<path d="M40.3602 13.0418C40.3602 10.5001 42.2134 8.72532 45.5812 8.72532C47.6362 8.72532 49.3177 9.38142 50.2287 10.0241C50.359 10.1159 50.5916 10.3385 50.4522 10.7526C50.2734 11.1986 49.9456 11.8693 49.7105 12.3049C49.5736 12.5588 49.224 12.5254 49.0449 12.4346C48.396 12.1058 47.3317 11.5495 46.354 11.447C46.1064 11.42 45.8573 11.4092 45.6083 11.4147C44.7473 11.4339 44.0279 11.7329 43.7745 12.3899C43.7249 12.5142 43.6972 12.6461 43.6927 12.7799C43.669 13.6456 44.8738 13.9587 46.3334 14.2094C49.0468 14.6743 51.0997 15.4698 51.0997 18.2626C51.0997 20.6344 49.2147 22.7778 45.5215 22.7121C43.0869 22.6629 41.3596 21.8402 40.434 21.0419C40.4024 21.0148 40.0501 20.656 40.239 20.2244C40.4551 19.6688 40.8199 19.0321 41.1062 18.694C41.2654 18.4769 41.6855 18.4424 41.9038 18.5777C42.6668 19.0518 43.9224 19.8121 45.3697 19.8625C45.484 19.8664 45.5972 19.8671 45.7083 19.8642C47.0102 19.8326 47.7979 19.339 47.7814 18.5074C47.7674 17.7748 46.7351 17.3469 45.0913 17.0371C42.4697 16.5432 40.3606 15.6791 40.3606 13.0418H40.3602ZM64.1776 16.6609C62.3288 16.6851 60.6338 17.1904 60.5849 18.6352C60.5844 19.7817 61.5144 20.3448 62.8198 20.2711C64.0719 20.1505 65.0268 19.6074 65.4476 18.8868C65.6032 18.6198 65.6268 17.6204 65.6174 17.1933C65.615 17.1024 65.4352 16.9304 65.3565 16.8973C64.9637 16.7318 64.673 16.6806 64.1774 16.6606L64.1776 16.6609ZM58.026 10.8392C58.8905 10.0656 60.6046 8.86151 63.3364 8.92498C66.9414 8.99994 68.8459 10.69 69.0233 14.7329C69.0964 16.4002 68.9753 21.0507 68.9464 22.2093C68.9422 22.3756 68.8859 22.4905 68.6619 22.4948C68.0682 22.5186 66.6967 22.5092 66.0665 22.5009C65.7484 22.4855 65.7116 22.3277 65.7074 22.1625C65.7047 22.0545 65.6954 21.734 65.6888 21.4728C65.6852 21.3342 65.555 21.3382 65.5217 21.3737C64.676 22.2766 63.2911 22.7126 61.8184 22.7126C59.5799 22.7126 57.3483 21.3958 57.3552 18.788C57.362 16.1173 59.2557 14.8 61.336 14.4894C62.6681 14.2911 64.1697 14.4674 65.3068 14.9192C65.3795 14.9484 65.528 14.9062 65.5292 14.8031C65.5339 14.4628 65.5174 13.8142 65.452 13.5068C65.2851 12.7236 64.6318 12.0935 63.2592 11.9236C62.9765 11.8888 62.692 11.8773 62.4071 11.9C61.316 11.9857 60.0029 12.8365 59.4592 13.155C59.3312 13.2298 59.1308 13.1751 59.066 13.0916C58.7487 12.6816 57.9511 11.4826 57.8883 11.291C57.8255 11.1 57.914 10.9391 58.0257 10.8386L58.026 10.8392ZM70.212 15.8108C70.1905 12.0861 72.7858 8.94385 76.9999 8.91623C79.6295 8.89908 81.5398 10.0912 81.8767 10.6535C81.9451 10.7855 81.9099 10.8958 81.8626 11.0288C81.6399 11.4988 81.0777 12.4068 80.677 12.9214C80.5063 13.1406 80.3211 12.9528 80.1058 12.8096C79.5084 12.4116 78.3732 11.925 77.256 11.925C75.2292 11.9254 73.7199 13.3151 73.7367 15.8719C73.7525 18.3254 75.1982 19.6738 77.263 19.7227C78.3425 19.7498 79.3883 19.1294 79.9509 18.6211C80.1276 18.4669 80.3104 18.5441 80.5123 18.7019C80.9085 19.1069 81.4768 19.7321 81.7919 20.1625C81.9983 20.4016 81.8439 20.6356 81.7696 20.7296C80.9147 21.8114 79.2636 22.7219 77.0785 22.7342C72.5031 22.7663 70.2334 19.5493 70.2123 15.8113L70.212 15.8108ZM92.0523 22.5663C92.267 22.5502 94.5588 22.2339 95.2623 22.0728C95.4369 22.033 95.499 21.8862 95.4014 21.7407C95.0086 21.1517 93.9758 19.479 92.8942 17.9815C91.8993 16.6047 90.8507 15.3937 90.5116 14.9278C90.4289 14.8146 90.4334 14.7031 90.5235 14.6153C91.1686 13.984 93.8671 11.3382 94.8817 10.2456C95.2745 9.82053 95.0386 9.63768 94.705 9.53836C94.0606 9.34625 93.0182 9.1068 92.4254 8.98176C92.1754 8.92892 91.8744 8.94745 91.6559 9.17215C90.6415 10.1181 87.5455 13.2254 86.6213 14.1542C86.455 14.3218 86.358 14.2846 86.3572 14.0451C86.3496 12.2543 86.3143 4.58737 86.2503 3.32629C86.2459 3.15956 86.0453 3.03298 85.9323 3.02697C85.3512 2.99661 83.883 2.98786 83.3045 3.02183C83.1424 3.04018 82.9875 3.20536 82.9734 3.34499C82.84 5.36147 83.03 20.164 83.1093 22.2347C83.1149 22.3845 83.2264 22.5006 83.3686 22.509C83.9458 22.5425 85.3735 22.5402 86.04 22.5277C86.368 22.5277 86.4081 22.2972 86.4081 22.2972L86.4575 18.3251C86.4575 18.3251 86.4913 18.1484 86.546 18.0901C86.781 17.8371 87.4311 17.1403 87.7083 16.871C87.7749 16.8064 87.8798 16.811 87.9478 16.9024C88.2771 17.3467 89.2162 18.791 90.0867 20.0808C90.8866 21.2658 91.6332 22.3174 91.6854 22.3917C91.8058 22.5632 91.9465 22.5701 92.0525 22.5668V22.5663H92.0523ZM53.0752 22.5526C53.2767 22.5593 54.8059 22.5575 55.4835 22.5567C55.7116 22.5611 55.8301 22.3884 55.8377 22.2359C55.9816 19.3326 55.92 5.50985 55.8291 3.32715C55.8215 3.13847 55.7407 3.06762 55.6119 3.05047C55.0304 2.9726 53.3779 2.99078 52.8482 3.12937C52.7446 3.1563 52.6836 3.23504 52.6803 3.33624C52.5506 8.96237 52.6381 21.9334 52.6656 22.179C52.6928 22.425 52.8215 22.544 53.0755 22.5526H53.0752Z" fill="#443642"/>
<path d="M12.1498 16.7801C11.2074 16.7873 10.4091 16.2258 10.1147 15.3492C10.1038 15.3161 10.0936 15.2828 10.0842 15.2492C9.76346 14.1268 10.3854 12.9525 11.5002 12.5765L29.3803 6.58617C29.5926 6.52475 29.8123 6.49266 30.0333 6.4908C31.0007 6.48325 31.821 7.05719 32.1225 7.95222L32.1493 8.03867C32.4838 9.20782 31.6527 10.2514 30.657 10.5859C30.6563 10.5864 30.4752 10.6476 12.876 16.6565C12.6421 16.7362 12.3969 16.778 12.1498 16.7801Z" fill="#70CADB"/>
<path d="M15.1295 25.5734C14.1798 25.5803 13.3787 25.0266 13.0878 24.1626C13.0768 24.1298 13.0665 24.0966 13.0569 24.0633C12.7317 22.9274 13.353 21.7408 14.4715 21.3643L32.3524 15.3191C32.5834 15.2419 32.822 15.2025 33.062 15.2003C34.0143 15.1931 34.851 15.7749 35.1462 16.6486L35.1737 16.7396C35.3464 17.3435 35.2443 18.0222 34.9009 18.5579C34.645 18.9562 33.8378 19.3068 33.8378 19.3068L15.8891 25.4439C15.6443 25.5268 15.3879 25.5706 15.1295 25.5738V25.5734Z" fill="#E01765"/>
<path d="M30.0149 25.6115C29.5514 25.616 29.0984 25.4736 28.7208 25.2049C28.3432 24.9361 28.0603 24.5547 27.9128 24.1153L21.9453 6.38955L21.9155 6.29006C21.5921 5.15969 22.2139 3.9806 23.3283 3.60496C23.5513 3.53 23.7819 3.49089 24.0139 3.48883C24.3587 3.48626 24.6923 3.56396 25.0066 3.71919C25.2654 3.8472 25.4964 4.02512 25.6862 4.24273C25.8761 4.46033 26.021 4.71331 26.1128 4.98713L32.0797 22.7113L32.097 22.7683C32.4322 23.9419 31.8118 25.1217 30.6974 25.4973C30.4772 25.5709 30.2469 25.6094 30.0149 25.6115Z" fill="#E8A723"/>
<path d="M21.1435 28.5972C20.6797 28.6016 20.2265 28.4591 19.8487 28.1901C19.4709 27.9211 19.188 27.5394 19.0405 27.0997L13.0746 9.37467C12.9821 9.10122 12.9445 8.81222 12.9639 8.52421C12.9833 8.23621 13.0594 7.95486 13.1876 7.69627C13.3159 7.43768 13.4939 7.20693 13.7115 7.01724C13.9291 6.82754 14.1819 6.68261 14.4556 6.59076C14.676 6.51707 14.9067 6.4784 15.1391 6.47618C15.6026 6.4716 16.0557 6.61391 16.4334 6.8827C16.8111 7.15149 17.094 7.53296 17.2415 7.97242L23.2076 25.6982C23.3001 25.9718 23.3377 26.2609 23.3182 26.5491C23.2988 26.8372 23.2227 27.1187 23.0942 27.3773C22.9658 27.636 22.7876 27.8668 22.5698 28.0564C22.352 28.2461 22.099 28.3909 21.8251 28.4826C21.6051 28.5563 21.3748 28.595 21.1428 28.597H21.1435V28.5972Z" fill="#3EB890"/>
<path d="M27.0721 21.6198L31.233 20.1972L29.8728 16.1577L25.707 17.5654L27.0721 21.6198Z" fill="#CC2027"/>
<path d="M18.2164 24.6482L22.377 23.2257L21.0065 19.1553L16.8418 20.5635L18.2164 24.6482Z" fill="#361238"/>
<path d="M24.1098 12.8208L28.271 11.4L26.9268 7.40771L22.7578 8.80447L24.1098 12.8208Z" fill="#65863A"/>
<path d="M15.2532 15.8454L19.4145 14.4246L18.0538 10.3813L13.8848 11.7779L15.2532 15.8454Z" fill="#1A937D"/>
</g>
</g>
<defs>
<clipPath id="clip0_23099_4204">
<rect width="106" height="32" fill="white"/>
</clipPath>
</defs>
</svg>
