<svg width="106" height="32" viewBox="0 0 106 32" fill="none" xmlns="http://www.w3.org/2000/svg">
<g clip-path="url(#clip0_23099_4234)">
<mask id="mask0_23099_4234" style="mask-type:alpha" maskUnits="userSpaceOnUse" x="0" y="0" width="106" height="32">
<rect width="106" height="32" fill="#919EAB"/>
</mask>
<g mask="url(#mask0_23099_4234)">
<path d="M23.3002 3H23.9976C26.419 3.05264 28.8009 4.02645 30.5117 5.75036C29.88 6.39518 29.2352 7.01368 28.6167 7.6585C27.656 6.78997 26.498 6.11883 25.2346 5.88195C23.366 5.48717 21.3526 5.84247 19.7866 6.9084C18.0758 8.02697 16.9178 9.92195 16.6677 11.9485C16.3914 13.9488 16.9572 16.0543 18.26 17.6072C19.5102 19.1205 21.4183 20.068 23.3923 20.1338C25.2346 20.2391 27.1559 19.6732 28.4982 18.3836C29.551 17.4756 30.0379 16.0938 30.1958 14.7515C28.0113 14.7515 25.8268 14.7647 23.6423 14.7515V12.0406H32.8409C33.3147 14.9489 32.6304 18.2257 30.4195 20.3049C28.9457 21.7788 26.9059 22.6473 24.8267 22.8184C22.8133 23.0158 20.734 22.6341 18.9443 21.6603C16.7993 20.5154 15.0886 18.581 14.2464 16.3044C13.4568 14.212 13.4436 11.8433 14.1806 9.73772C14.8517 7.81642 16.1413 6.11883 17.7995 4.93446C19.3918 3.76326 21.3262 3.11844 23.3002 3Z" fill="#3780FF"/>
<path d="M76.0703 3.68408H78.8864V22.476C77.9521 22.476 77.0046 22.4892 76.0703 22.4629C76.0835 16.212 76.0703 9.94806 76.0703 3.68408V3.68408Z" fill="#38B137"/>
<path d="M39.1041 10.1983C40.8412 9.86929 42.723 10.2378 44.1574 11.2774C45.4602 12.1985 46.3683 13.6461 46.6446 15.2252C46.9999 17.0544 46.5525 19.0547 45.3681 20.5022C44.0916 22.1209 41.9993 22.9894 39.9595 22.8578C38.0908 22.7525 36.2748 21.8182 35.1694 20.2917C33.9192 18.6073 33.6166 16.2912 34.3009 14.3172C34.9852 12.1985 36.9196 10.5799 39.1041 10.1983V10.1983ZM39.4989 12.6986C38.7883 12.8828 38.1303 13.2908 37.6566 13.8698C36.3801 15.3963 36.459 17.8835 37.8671 19.3047C38.6699 20.1206 39.8806 20.5022 40.9991 20.2785C42.0387 20.0943 42.9468 19.3968 43.4468 18.4757C44.3154 16.9097 44.0653 14.7515 42.7362 13.5277C41.8808 12.7381 40.6307 12.4091 39.4989 12.6986Z" fill="#FA3913"/>
<path d="M53.0531 10.1983C55.0402 9.81664 57.2115 10.3693 58.6986 11.7643C61.1199 13.9356 61.3831 18.0019 59.3171 20.5023C58.0669 22.0814 56.0403 22.9499 54.0401 22.8578C52.1319 22.8052 50.2501 21.8577 49.1184 20.2917C47.8419 18.5678 47.5655 16.1991 48.2893 14.1856C49.0131 12.1327 50.9081 10.5667 53.0531 10.1983V10.1983ZM53.4479 12.6986C52.7373 12.8828 52.0793 13.2908 51.6055 13.8566C50.3422 15.3568 50.3949 17.8045 51.7503 19.2389C52.553 20.0943 53.8032 20.5154 54.9612 20.2785C55.9877 20.0812 56.9089 19.3968 57.4089 18.4757C58.2643 16.8965 58.0143 14.7383 56.672 13.5145C55.8166 12.7249 54.5664 12.4091 53.4479 12.6986Z" fill="#FCBD06"/>
<path d="M64.8852 10.9614C66.3986 10.014 68.412 9.75076 70.0438 10.5667C70.557 10.7904 70.9781 11.172 71.3861 11.5536C71.3992 11.1983 71.3861 10.8299 71.3992 10.4614C72.2809 10.4745 73.1626 10.4614 74.0575 10.4745V22.0813C74.0443 23.8316 73.5969 25.6871 72.3336 26.9636C70.9518 28.3716 68.8331 28.8059 66.925 28.5164C64.8852 28.2137 63.1087 26.7267 62.3191 24.8449C63.1087 24.4632 63.9377 24.1606 64.7536 23.8052C65.2142 24.8843 66.1486 25.8055 67.3198 26.0161C68.491 26.2266 69.8464 25.9371 70.6097 24.9633C71.4256 23.9632 71.4256 22.5946 71.3861 21.3707C70.7807 21.9629 70.0833 22.4893 69.2411 22.6867C67.4119 23.1999 65.3985 22.5682 63.9904 21.3312C62.5691 20.0942 61.7269 18.1861 61.8059 16.2911C61.8454 14.1461 63.056 12.08 64.8852 10.9614V10.9614ZM67.6093 12.6459C66.8065 12.7775 66.0564 13.2249 65.5432 13.8434C64.3062 15.3173 64.3062 17.6729 65.5564 19.1204C66.267 19.9758 67.4119 20.4495 68.5173 20.3311C69.5569 20.2258 70.5176 19.5678 71.0308 18.6598C71.8993 17.1202 71.7546 15.0278 70.5834 13.6855C69.8596 12.8564 68.7015 12.4485 67.6093 12.6459V12.6459Z" fill="#3780FF"/>
<path d="M82.2687 11.6325C83.8479 10.1586 86.2824 9.65856 88.309 10.435C90.2304 11.1588 91.4542 12.988 92.0727 14.8698C89.2171 16.0542 86.3746 17.2254 83.5189 18.4097C83.9137 19.1598 84.519 19.8441 85.3349 20.1205C86.4798 20.5284 87.8484 20.3837 88.8091 19.6204C89.1907 19.3309 89.4934 18.9493 89.7829 18.5808C90.5067 19.0677 91.2305 19.5415 91.9543 20.0284C90.9278 21.5681 89.2039 22.6471 87.3484 22.8182C85.2955 23.0683 83.1109 22.2787 81.7818 20.6732C79.5973 18.1465 79.8079 13.9091 82.2687 11.6325V11.6325ZM83.6768 14.067C83.2294 14.7119 83.0451 15.5014 83.0583 16.2779C84.9665 15.4883 86.8746 14.6987 88.7828 13.896C88.467 13.159 87.7037 12.7116 86.9273 12.5932C85.6771 12.3694 84.3743 13.0406 83.6768 14.067V14.067Z" fill="#FA3913"/>
</g>
</g>
<defs>
<clipPath id="clip0_23099_4234">
<rect width="106" height="32" fill="white"/>
</clipPath>
</defs>
</svg>
