<svg width="65" height="64" viewBox="0 0 65 64" fill="none" xmlns="http://www.w3.org/2000/svg">
<path d="M59.3742 12.2928L49.3742 2.29285C49.1866 2.10534 48.9323 2.00001 48.667 2H23.667C22.6065 2.00121 21.5898 2.42303 20.8399 3.17291C20.0901 3.9228 19.6682 4.93951 19.667 6V35H21.667V6C21.6676 5.46975 21.8785 4.9614 22.2535 4.58646C22.6284 4.21151 23.1368 4.00061 23.667 4H47.667V10C47.6682 11.0605 48.0901 12.0772 48.8399 12.8271C49.5898 13.577 50.6065 13.9988 51.667 14H57.667V58C57.6664 58.5302 57.4555 59.0386 57.0806 59.4135C56.7056 59.7885 56.1973 59.9994 55.667 60H23.667C23.1751 60.0004 22.7004 59.8191 22.334 59.491L21 60.9812C21.7331 61.6378 22.6829 62.0006 23.667 62H55.667C56.7275 61.9988 57.7442 61.577 58.4941 60.8271C59.244 60.0772 59.6658 59.0605 59.667 58V13C59.667 12.7348 59.5617 12.4804 59.3742 12.2928ZM49.667 10V5.41419L56.2528 12H51.667C51.1368 11.9994 50.6284 11.7885 50.2535 11.4135C49.8785 11.0386 49.6676 10.5302 49.667 10Z" fill="#FA541C"/>
<path d="M23.667 6H27.667V8H23.667V6Z" fill="#FA541C"/>
<path d="M29.667 6H36.667V8H29.667V6Z" fill="#FA541C"/>
<path d="M23.667 10H29.667V12H23.667V10Z" fill="#FA541C"/>
<path d="M23.667 16H30.667V18H23.667V16Z" fill="#FA541C"/>
<path d="M32.667 16H40.667V18H32.667V16Z" fill="#FA541C"/>
<path d="M23.667 20H32.667V22H23.667V20Z" fill="#FA541C"/>
<path d="M28.667 24H38.667V26H28.667V24Z" fill="#FA541C"/>
<path d="M40.667 24H49.667V26H40.667V24Z" fill="#FA541C"/>
<path d="M51.667 24H55.667V26H51.667V24Z" fill="#FA541C"/>
<path d="M23.667 28H33.667V30H23.667V28Z" fill="#FA541C"/>
<path d="M35.667 28H44.667V30H35.667V28Z" fill="#FA541C"/>
<path d="M46.667 28H55.667V30H46.667V28Z" fill="#FA541C"/>
<path d="M23.667 32H38.667V34H23.667V32Z" fill="#FA541C"/>
<path d="M40.667 32H49.667V34H40.667V32Z" fill="#FA541C"/>
<path d="M51.667 32H55.667V34H51.667V32Z" fill="#FA541C"/>
<path d="M29.667 51C29.4018 51 29.1475 51.1054 28.9599 51.2929C28.7724 51.4804 28.667 51.7348 28.667 52V58C28.667 58.2652 28.7724 58.5196 28.9599 58.7071C29.1475 58.8946 29.4018 59 29.667 59H35.667C35.9322 59 36.1866 58.8946 36.3741 58.7071C36.5617 58.5196 36.667 58.2652 36.667 58V52C36.667 51.7348 36.5617 51.4804 36.3741 51.2929C36.1866 51.1054 35.9322 51 35.667 51H29.667ZM34.667 57H30.667V53H34.667V57Z" fill="#FA541C"/>
<path d="M38.667 58C38.667 58.2652 38.7724 58.5196 38.9599 58.7071C39.1475 58.8946 39.4018 59 39.667 59H45.667C45.9322 59 46.1866 58.8946 46.3741 58.7071C46.5617 58.5196 46.667 58.2652 46.667 58V47C46.667 46.7348 46.5617 46.4804 46.3741 46.2929C46.1866 46.1054 45.9322 46 45.667 46H39.667C39.4018 46 39.1475 46.1054 38.9599 46.2929C38.7724 46.4804 38.667 46.7348 38.667 47V58ZM40.667 48H44.667V57H40.667V48Z" fill="#FA541C"/>
<path d="M49.667 59H55.667C55.9322 59 56.1866 58.8946 56.3741 58.7071C56.5617 58.5196 56.667 58.2652 56.667 58V43C56.667 42.7348 56.5617 42.4804 56.3741 42.2929C56.1866 42.1054 55.9322 42 55.667 42H49.667C49.4018 42 49.1475 42.1054 48.9599 42.2929C48.7724 42.4804 48.667 42.7348 48.667 43V58C48.667 58.2652 48.7724 58.5196 48.9599 58.7071C49.1475 58.8946 49.4018 59 49.667 59ZM50.667 44H54.667V57H50.667V44Z" fill="#FA541C"/>
<path d="M7.667 47.9991C7.66977 45.6867 8.56152 43.4638 10.1577 41.7905C11.7538 40.1173 13.9322 39.1217 16.242 39.0099L14.9598 40.292L16.3742 41.7063L19.3742 38.7063C19.5617 38.5187 19.667 38.2644 19.667 37.9991C19.667 37.7339 19.5617 37.4796 19.3742 37.292L16.3742 34.292L14.9598 35.7063L16.261 37.0074C13.8759 37.0957 11.5842 37.9572 9.73171 39.4621C7.87917 40.9669 6.5663 43.0334 5.99117 45.3498C5.41603 47.6662 5.60985 50.1068 6.54336 52.3034C7.47687 54.5 9.09945 56.3334 11.1663 57.527L12.1677 55.7958C10.8015 55.003 9.66691 53.8659 8.87719 52.4979C8.08748 51.1299 7.67021 49.5787 7.667 47.9991Z" fill="#FA541C"/>
<path d="M27.667 48C27.6632 46.0697 27.1535 44.1742 26.1885 42.5024C25.2236 40.8306 23.8373 39.441 22.1677 38.4722L21.1663 40.2034C22.8507 41.1758 24.1749 42.6677 24.9404 44.4556C25.706 46.2436 25.8718 48.2314 25.4131 50.1215C24.9543 52.0116 23.8956 53.7022 22.3956 54.9403C20.8955 56.1783 19.0348 56.8972 17.092 56.9892L18.3742 55.7072L16.9599 54.2929L13.9599 57.2929C13.7723 57.4804 13.667 57.7348 13.667 58C13.667 58.2652 13.7723 58.5196 13.9599 58.7072L16.9599 61.7072L18.3742 60.2929L17.073 58.9917C19.9169 58.8835 22.6086 57.6785 24.5836 55.6293C26.5586 53.5802 27.6636 50.846 27.667 48Z" fill="#FA541C"/>
<path d="M17.3742 48.7072C17.5617 48.5196 17.667 48.2652 17.667 48V43H15.667V47.5858L12.9599 50.2928L14.3742 51.7072L17.3742 48.7072Z" fill="#FA541C"/>
</svg>
