<svg width="65" height="64" viewBox="0 0 65 64" fill="none" xmlns="http://www.w3.org/2000/svg">
<path d="M54.3741 28.2929C54.2813 28.2 54.171 28.1264 54.0497 28.0761C53.9284 28.0259 53.7983 28 53.667 28H39.667C38.3414 28.0015 37.0705 28.5288 36.1331 29.4661C35.1957 30.4035 34.6685 31.6744 34.667 33V57C34.6685 58.3256 35.1957 59.5965 36.1331 60.5339C37.0705 61.4712 38.3414 61.9985 39.667 62H57.667C58.9926 61.9985 60.2635 61.4712 61.2009 60.5339C62.1382 59.5965 62.6655 58.3256 62.667 57V37C62.667 36.8687 62.6411 36.7386 62.5909 36.6173C62.5406 36.496 62.467 36.3857 62.3741 36.2929L54.3741 28.2929ZM54.667 31.4141L59.2529 36H57.667C56.8716 35.9991 56.1091 35.6827 55.5467 35.1203C54.9843 34.5579 54.6679 33.7954 54.667 33V31.4141ZM60.667 57C60.6661 57.7954 60.3497 58.5579 59.7873 59.1203C59.2249 59.6827 58.4624 59.9991 57.667 60H39.667C38.8716 59.9991 38.1091 59.6827 37.5467 59.1203C36.9843 58.5579 36.6679 57.7954 36.667 57V33C36.6679 32.2046 36.9843 31.4421 37.5467 30.8797C38.1091 30.3173 38.8716 30.0009 39.667 30H52.667V33C52.6685 34.3256 53.1957 35.5965 54.1331 36.5339C55.0705 37.4712 56.3414 37.9985 57.667 38H60.667V57Z" fill="#FA541C"/>
<path d="M55.667 42H47.667C47.4018 42 47.1474 42.1054 46.9599 42.2929C46.7723 42.4804 46.667 42.7348 46.667 43C46.667 43.2652 46.7723 43.5196 46.9599 43.7071C47.1474 43.8946 47.4018 44 47.667 44H55.667C55.9322 44 56.1866 43.8946 56.3741 43.7071C56.5616 43.5196 56.667 43.2652 56.667 43C56.667 42.7348 56.5616 42.4804 56.3741 42.2929C56.1866 42.1054 55.9322 42 55.667 42Z" fill="#FA541C"/>
<path d="M41.667 50H49.667C49.9322 50 50.1866 49.8946 50.3741 49.7071C50.5616 49.5196 50.667 49.2652 50.667 49C50.667 48.7348 50.5616 48.4804 50.3741 48.2929C50.1866 48.1054 49.9322 48 49.667 48H41.667C41.4018 48 41.1474 48.1054 40.9599 48.2929C40.7723 48.4804 40.667 48.7348 40.667 49C40.667 49.2652 40.7723 49.5196 40.9599 49.7071C41.1474 49.8946 41.4018 50 41.667 50Z" fill="#FA541C"/>
<path d="M55.667 54H49.667C49.4018 54 49.1474 54.1054 48.9599 54.2929C48.7723 54.4804 48.667 54.7348 48.667 55C48.667 55.2652 48.7723 55.5196 48.9599 55.7071C49.1474 55.8946 49.4018 56 49.667 56H55.667C55.9322 56 56.1866 55.8946 56.3741 55.7071C56.5616 55.5196 56.667 55.2652 56.667 55C56.667 54.7348 56.5616 54.4804 56.3741 54.2929C56.1866 54.1054 55.9322 54 55.667 54Z" fill="#FA541C"/>
<path d="M41.667 44H43.667C43.9322 44 44.1866 43.8946 44.3741 43.7071C44.5616 43.5196 44.667 43.2652 44.667 43C44.667 42.7348 44.5616 42.4804 44.3741 42.2929C44.1866 42.1054 43.9322 42 43.667 42H41.667C41.4018 42 41.1474 42.1054 40.9599 42.2929C40.7723 42.4804 40.667 42.7348 40.667 43C40.667 43.2652 40.7723 43.5196 40.9599 43.7071C41.1474 43.8946 41.4018 44 41.667 44Z" fill="#FA541C"/>
<path d="M55.667 48H53.667C53.4018 48 53.1474 48.1054 52.9599 48.2929C52.7723 48.4804 52.667 48.7348 52.667 49C52.667 49.2652 52.7723 49.5196 52.9599 49.7071C53.1474 49.8946 53.4018 50 53.667 50H55.667C55.9322 50 56.1866 49.8946 56.3741 49.7071C56.5616 49.5196 56.667 49.2652 56.667 49C56.667 48.7348 56.5616 48.4804 56.3741 48.2929C56.1866 48.1054 55.9322 48 55.667 48Z" fill="#FA541C"/>
<path d="M45.667 54H41.667C41.4018 54 41.1474 54.1054 40.9599 54.2929C40.7723 54.4804 40.667 54.7348 40.667 55C40.667 55.2652 40.7723 55.5196 40.9599 55.7071C41.1474 55.8946 41.4018 56 41.667 56H45.667C45.9322 56 46.1866 55.8946 46.3741 55.7071C46.5616 55.5196 46.667 55.2652 46.667 55C46.667 54.7348 46.5616 54.4804 46.3741 54.2929C46.1866 54.1054 45.9322 54 45.667 54Z" fill="#FA541C"/>
<path d="M41.667 38H45.667C45.9322 38 46.1866 37.8946 46.3741 37.7071C46.5616 37.5196 46.667 37.2652 46.667 37C46.667 36.7348 46.5616 36.4804 46.3741 36.2929C46.1866 36.1054 45.9322 36 45.667 36H41.667C41.4018 36 41.1474 36.1054 40.9599 36.2929C40.7723 36.4804 40.667 36.7348 40.667 37C40.667 37.2652 40.7723 37.5196 40.9599 37.7071C41.1474 37.8946 41.4018 38 41.667 38Z" fill="#FA541C"/>
<path d="M7.66699 36H25.667C26.9926 35.9985 28.2635 35.4712 29.2009 34.5339C30.1382 33.5965 30.6655 32.3256 30.667 31V11C30.667 10.8687 30.6411 10.7386 30.5909 10.6173C30.5406 10.496 30.467 10.3857 30.3741 10.2929L22.3741 2.29288C22.2813 2.20002 22.171 2.12636 22.0497 2.07611C21.9284 2.02586 21.7983 2 21.667 2H7.66699C6.34137 2.00149 5.07046 2.52875 4.1331 3.46611C3.19574 4.40347 2.66848 5.67437 2.66699 7V31C2.66848 32.3256 3.19574 33.5965 4.1331 34.5339C5.07046 35.4712 6.34137 35.9985 7.66699 36ZM22.667 5.41412L27.2529 10H25.667C24.8716 9.99907 24.1091 9.68271 23.5467 9.1203C22.9843 8.55789 22.6679 7.79537 22.667 7V5.41412ZM4.66699 7C4.66792 6.20463 4.98429 5.44211 5.54669 4.8797C6.1091 4.31729 6.87163 4.00093 7.66699 4H20.667V7C20.6685 8.32563 21.1957 9.59653 22.1331 10.5339C23.0705 11.4712 24.3414 11.9985 25.667 12H28.667V31C28.6661 31.7954 28.3497 32.5579 27.7873 33.1203C27.2249 33.6827 26.4624 33.9991 25.667 34H7.66699C6.87163 33.9991 6.1091 33.6827 5.54669 33.1203C4.98429 32.5579 4.66792 31.7954 4.66699 31V7Z" fill="#FA541C"/>
<path d="M15.667 18H23.667C23.9322 18 24.1866 17.8946 24.3741 17.7071C24.5616 17.5196 24.667 17.2652 24.667 17C24.667 16.7348 24.5616 16.4804 24.3741 16.2929C24.1866 16.1054 23.9322 16 23.667 16H15.667C15.4018 16 15.1474 16.1054 14.9599 16.2929C14.7723 16.4804 14.667 16.7348 14.667 17C14.667 17.2652 14.7723 17.5196 14.9599 17.7071C15.1474 17.8946 15.4018 18 15.667 18Z" fill="#FA541C"/>
<path d="M9.66699 24H17.667C17.9322 24 18.1866 23.8946 18.3741 23.7071C18.5616 23.5196 18.667 23.2652 18.667 23C18.667 22.7348 18.5616 22.4804 18.3741 22.2929C18.1866 22.1054 17.9322 22 17.667 22H9.66699C9.40178 22 9.14742 22.1054 8.95989 22.2929C8.77235 22.4804 8.66699 22.7348 8.66699 23C8.66699 23.2652 8.77235 23.5196 8.95989 23.7071C9.14742 23.8946 9.40178 24 9.66699 24Z" fill="#FA541C"/>
<path d="M23.667 28H17.667C17.4018 28 17.1474 28.1054 16.9599 28.2929C16.7723 28.4804 16.667 28.7348 16.667 29C16.667 29.2652 16.7723 29.5196 16.9599 29.7071C17.1474 29.8946 17.4018 30 17.667 30H23.667C23.9322 30 24.1866 29.8946 24.3741 29.7071C24.5616 29.5196 24.667 29.2652 24.667 29C24.667 28.7348 24.5616 28.4804 24.3741 28.2929C24.1866 28.1054 23.9322 28 23.667 28Z" fill="#FA541C"/>
<path d="M9.66699 18H11.667C11.9322 18 12.1866 17.8946 12.3741 17.7071C12.5616 17.5196 12.667 17.2652 12.667 17C12.667 16.7348 12.5616 16.4804 12.3741 16.2929C12.1866 16.1054 11.9322 16 11.667 16H9.66699C9.40178 16 9.14742 16.1054 8.95989 16.2929C8.77235 16.4804 8.66699 16.7348 8.66699 17C8.66699 17.2652 8.77235 17.5196 8.95989 17.7071C9.14742 17.8946 9.40178 18 9.66699 18Z" fill="#FA541C"/>
<path d="M23.667 22H21.667C21.4018 22 21.1474 22.1054 20.9599 22.2929C20.7723 22.4804 20.667 22.7348 20.667 23C20.667 23.2652 20.7723 23.5196 20.9599 23.7071C21.1474 23.8946 21.4018 24 21.667 24H23.667C23.9322 24 24.1866 23.8946 24.3741 23.7071C24.5616 23.5196 24.667 23.2652 24.667 23C24.667 22.7348 24.5616 22.4804 24.3741 22.2929C24.1866 22.1054 23.9322 22 23.667 22Z" fill="#FA541C"/>
<path d="M9.66699 30H13.667C13.9322 30 14.1866 29.8946 14.3741 29.7071C14.5616 29.5196 14.667 29.2652 14.667 29C14.667 28.7348 14.5616 28.4804 14.3741 28.2929C14.1866 28.1054 13.9322 28 13.667 28H9.66699C9.40178 28 9.14742 28.1054 8.95989 28.2929C8.77235 28.4804 8.66699 28.7348 8.66699 29C8.66699 29.2652 8.77235 29.5196 8.95989 29.7071C9.14742 29.8946 9.40178 30 9.66699 30Z" fill="#FA541C"/>
<path d="M9.66699 12H13.667C13.9322 12 14.1866 11.8946 14.3741 11.7071C14.5616 11.5196 14.667 11.2652 14.667 11C14.667 10.7348 14.5616 10.4804 14.3741 10.2929C14.1866 10.1054 13.9322 10 13.667 10H9.66699C9.40178 10 9.14742 10.1054 8.95989 10.2929C8.77235 10.4804 8.66699 10.7348 8.66699 11C8.66699 11.2652 8.77235 11.5196 8.95989 11.7071C9.14742 11.8946 9.40178 12 9.66699 12Z" fill="#FA541C"/>
<path d="M29.667 51.9997H17.667C15.8111 51.9977 14.0319 51.2595 12.7196 49.9472C11.4073 48.6349 10.6691 46.8556 10.667 44.9997V43.414L12.9599 45.7069C13.0528 45.7997 13.163 45.8734 13.2843 45.9236C13.4057 45.9739 13.5357 45.9998 13.667 45.9998C13.7984 45.9998 13.9284 45.9739 14.0497 45.9236C14.171 45.8734 14.2813 45.7997 14.3742 45.7069C14.467 45.614 14.5407 45.5038 14.5909 45.3824C14.6412 45.2611 14.6671 45.1311 14.6671 44.9997C14.6671 44.8684 14.6412 44.7384 14.5909 44.617C14.5407 44.4957 14.467 44.3855 14.3742 44.2926L10.3742 40.2926C10.2813 40.1997 10.171 40.1261 10.0497 40.0758C9.92839 40.0256 9.79835 39.9997 9.66703 39.9997C9.5357 39.9997 9.40566 40.0256 9.28433 40.0758C9.163 40.1261 9.05276 40.1997 8.9599 40.2926L4.9599 44.2926C4.77236 44.4801 4.667 44.7345 4.667 44.9997C4.667 45.265 4.77236 45.5193 4.9599 45.7069C5.14744 45.8944 5.4018 45.9998 5.66703 45.9998C5.93225 45.9998 6.18661 45.8944 6.37415 45.7069L8.66703 43.414V44.9997C8.66971 47.3859 9.61878 49.6735 11.306 51.3607C12.9933 53.048 15.2809 53.9971 17.667 53.9997H29.667C29.9322 53.9997 30.1866 53.8944 30.3741 53.7068C30.5617 53.5193 30.667 53.2649 30.667 52.9997C30.667 52.7345 30.5617 52.4802 30.3741 52.2926C30.1866 52.1051 29.9322 51.9997 29.667 51.9997Z" fill="#FA541C"/>
<path d="M60.3741 18.2929C60.2813 18.2 60.171 18.1263 60.0497 18.0761C59.9284 18.0258 59.7983 18 59.667 18C59.5357 18 59.4056 18.0258 59.2843 18.0761C59.163 18.1263 59.0527 18.2 58.9599 18.2929L56.667 20.5858V19C56.6643 16.6139 55.7152 14.3262 54.028 12.639C52.3407 10.9518 50.0531 10.0027 47.667 10H35.667C35.4018 10 35.1474 10.1054 34.9599 10.2929C34.7723 10.4804 34.667 10.7348 34.667 11C34.667 11.2652 34.7723 11.5196 34.9599 11.7071C35.1474 11.8946 35.4018 12 35.667 12H47.667C49.5229 12.0021 51.3021 12.7403 52.6144 14.0526C53.9267 15.3649 54.6649 17.1441 54.667 19V20.5858L52.3741 18.2929C52.1866 18.1053 51.9322 18 51.667 18C51.4018 18 51.1474 18.1053 50.9599 18.2929C50.7723 18.4804 50.667 18.7348 50.667 19C50.667 19.2652 50.7723 19.5196 50.9599 19.7071L54.9599 23.7071C55.0527 23.8 55.163 23.8737 55.2843 23.9239C55.4056 23.9742 55.5357 24 55.667 24C55.7983 24 55.9284 23.9742 56.0497 23.9239C56.171 23.8737 56.2813 23.8 56.3741 23.7071L60.3741 19.7071C60.467 19.6143 60.5406 19.504 60.5909 19.3827C60.6412 19.2614 60.667 19.1313 60.667 19C60.667 18.8687 60.6412 18.7386 60.5909 18.6173C60.5406 18.496 60.467 18.3857 60.3741 18.2929Z" fill="#FA541C"/>
</svg>
