<svg width="64" height="64" viewBox="0 0 64 64" fill="none" xmlns="http://www.w3.org/2000/svg">
<path d="M61.7098 13.29L50.7098 2.29C50.5191 2.1058 50.2649 2.00197 49.9998 2H24.9998C24.2049 2.00237 23.4432 2.31921 22.8811 2.8813C22.319 3.4434 22.0022 4.20508 21.9998 5V11.05C16.6134 11.3025 11.5311 13.62 7.80844 17.5212C4.08578 21.4224 2.00879 26.6076 2.00879 32C2.00879 37.3924 4.08578 42.5776 7.80844 46.4788C11.5311 50.3801 16.6134 52.6975 21.9998 52.95V59C22.0022 59.7949 22.319 60.5566 22.8811 61.1187C23.4432 61.6808 24.2049 61.9976 24.9998 62H58.9998C59.7948 61.9976 60.5564 61.6808 61.1185 61.1187C61.6806 60.5566 61.9975 59.7949 61.9998 59V14C61.9979 13.7349 61.894 13.4807 61.7098 13.29ZM50.9998 5.41L58.5898 13H51.9998C51.7346 13 51.4803 12.8946 51.2927 12.7071C51.1052 12.5196 50.9998 12.2652 50.9998 12V5.41ZM3.99984 32C4.00635 27.1363 5.87557 22.4598 9.22335 18.9316C12.5711 15.4034 17.1432 13.2916 21.9998 13.03V31.59L8.89984 44.69C5.74635 41.2159 3.99953 36.6919 3.99984 32ZM10.3098 46.1L23.4098 33H41.9698C41.7877 36.5832 40.5927 40.0412 38.5238 42.9725C36.4548 45.9037 33.5968 48.1878 30.2815 49.5596C26.9662 50.9313 23.3299 51.3344 19.7947 50.722C16.2595 50.1096 12.9705 48.5069 10.3098 46.1ZM59.9998 59C59.9998 59.2652 59.8945 59.5196 59.7069 59.7071C59.5194 59.8946 59.2651 60 58.9998 60H24.9998C24.7346 60 24.4803 59.8946 24.2927 59.7071C24.1052 59.5196 23.9998 59.2652 23.9998 59V52.95C29.3844 52.6899 34.4631 50.3703 38.1856 46.471C41.9081 42.5717 43.9897 37.3909 43.9998 32C43.9998 31.7348 43.8945 31.4804 43.7069 31.2929C43.5194 31.1054 43.2651 31 42.9998 31H23.9998V5C23.9998 4.73478 24.1052 4.48043 24.2927 4.29289C24.4803 4.10536 24.7346 4 24.9998 4H48.9998V12C49.0022 12.7949 49.319 13.5566 49.8811 14.1187C50.4432 14.6808 51.2049 14.9976 51.9998 15H59.9998V59Z" fill="#FA541C"/>
<path d="M26.9998 7C26.7346 7 26.4802 7.10536 26.2927 7.29289C26.1051 7.48043 25.9998 7.73478 25.9998 8V28C25.9998 28.2652 26.1051 28.5196 26.2927 28.7071C26.4802 28.8946 26.7346 29 26.9998 29H46.9998C47.265 29 47.5193 28.8946 47.7069 28.7071C47.8944 28.5196 47.9998 28.2652 47.9998 28C47.9937 22.4323 45.7792 17.0944 41.8423 13.1575C37.9053 9.22054 32.5674 7.00609 26.9998 7ZM27.9998 27V9.03C32.6841 9.28152 37.1101 11.2555 40.4272 14.5726C43.7442 17.8897 45.7183 22.3157 45.9698 27H27.9998Z" fill="#FA541C"/>
<path d="M48.9997 40C47.2197 40 45.4796 40.5278 43.9996 41.5168C42.5196 42.5057 41.366 43.9113 40.6848 45.5559C40.0036 47.2004 39.8254 49.01 40.1727 50.7558C40.5199 52.5016 41.3771 54.1053 42.6358 55.364C43.8944 56.6226 45.4981 57.4798 47.2439 57.8271C48.9897 58.1743 50.7993 57.9961 52.4439 57.3149C54.0884 56.6337 55.494 55.4802 56.483 54.0001C57.4719 52.5201 57.9997 50.78 57.9997 49C57.996 46.6142 57.0466 44.3272 55.3596 42.6401C53.6726 40.9531 51.3855 40.0037 48.9997 40ZM48.9997 56C47.6153 56 46.2619 55.5895 45.1107 54.8203C43.9596 54.0511 43.0624 52.9579 42.5326 51.6788C42.0028 50.3997 41.8641 48.9922 42.1342 47.6344C42.4043 46.2765 43.071 45.0292 44.05 44.0503C45.0289 43.0713 46.2762 42.4046 47.6341 42.1345C48.992 41.8644 50.3994 42.003 51.6785 42.5328C52.9576 43.0627 54.0508 43.9599 54.82 45.111C55.5892 46.2622 55.9997 47.6155 55.9997 49C55.9976 50.8559 55.2594 52.6351 53.9471 53.9474C52.6348 55.2597 50.8556 55.9979 48.9997 56Z" fill="#FA541C"/>
<path d="M46.9998 50.5862L44.7068 48.2932L43.2928 49.7072L46.2928 52.7072C46.4803 52.8947 46.7346 53 46.9998 53C47.2649 53 47.5192 52.8947 47.7068 52.7072L53.7068 46.7072L52.2928 45.2932L46.9998 50.5862Z" fill="#FA541C"/>
<path d="M49.9998 19H57.9998V21H49.9998V19Z" fill="#FA541C"/>
<path d="M49.9998 25H57.9998V27H49.9998V25Z" fill="#FA541C"/>
<path d="M49.9998 31H57.9998V33H49.9998V31Z" fill="#FA541C"/>
</svg>
